solid CATIA STL
  facet normal  2.713725e-01 -4.244443e-03  9.624650e-01
    outer loop
      vertex  3.849999e+01 -7.000000e+00  9.000000e+00
      vertex  3.750080e+01  7.008766e+00  9.343505e+00
      vertex  3.765119e+01 -7.004245e+00  9.239305e+00
    endloop
  endfacet
  facet normal  7.952658e-01  4.026747e-03  6.062476e-01
    outer loop
      vertex  3.765119e+01 -7.004245e+00  9.239305e+00
      vertex  3.750080e+01  7.008766e+00  9.343505e+00
      vertex  3.700000e+01  7.076923e+00  1.000000e+01
    endloop
  endfacet
  facet normal  7.596671e-01  0.000000e+00  6.503122e-01
    outer loop
      vertex  3.765119e+01 -7.004245e+00  9.239305e+00
      vertex  3.700000e+01  7.076923e+00  1.000000e+01
      vertex  3.700000e+01 -7.076923e+00  1.000000e+01
    endloop
  endfacet
  facet normal  3.251043e-01 -3.543356e-07  9.456782e-01
    outer loop
      vertex  3.750080e+01  7.008766e+00  9.343505e+00
      vertex  3.849999e+01 -7.000000e+00  9.000000e+00
      vertex  3.850001e+01  7.000000e+00  9.000000e+00
    endloop
  endfacet
  facet normal -3.251043e-01  3.543356e-07  9.456782e-01
    outer loop
      vertex  3.850001e+01  7.000000e+00  9.000000e+00
      vertex  3.849999e+01 -7.000000e+00  9.000000e+00
      vertex  3.949920e+01 -7.008766e+00  9.343505e+00
    endloop
  endfacet
  facet normal -2.713725e-01  4.244443e-03  9.624650e-01
    outer loop
      vertex  3.850001e+01  7.000000e+00  9.000000e+00
      vertex  3.949920e+01 -7.008766e+00  9.343505e+00
      vertex  3.934881e+01  7.004245e+00  9.239305e+00
    endloop
  endfacet
  facet normal -7.952658e-01 -4.026747e-03  6.062476e-01
    outer loop
      vertex  3.934881e+01  7.004245e+00  9.239305e+00
      vertex  3.949920e+01 -7.008766e+00  9.343505e+00
      vertex  4.000000e+01 -7.076923e+00  1.000000e+01
    endloop
  endfacet
  facet normal -7.596671e-01  0.000000e+00  6.503122e-01
    outer loop
      vertex  3.934881e+01  7.004245e+00  9.239305e+00
      vertex  4.000000e+01 -7.076923e+00  1.000000e+01
      vertex  4.000000e+01  7.076923e+00  1.000000e+01
    endloop
  endfacet
  facet normal  -0.000000e+00  0.000000e+00  9.999999e-01
    outer loop
      vertex  5.500000e+01  1.100000e+01  1.000000e+01
      vertex  4.400000e+01  1.100000e+01  1.000000e+01
      vertex  4.588388e+01  8.508883e+00  1.000000e+01
    endloop
  endfacet
  facet normal  -0.000000e+00  0.000000e+00  1.000000e+00
    outer loop
      vertex  3.700000e+01  7.076923e+00  1.000000e+01
      vertex  2.742705e+01  2.853169e+00  1.000000e+01
      vertex  2.892705e+01  1.763356e+00  1.000000e+01
    endloop
  endfacet
  facet normal  0.000000e+00  0.000000e+00  1.000000e+00
    outer loop
      vertex  4.588388e+01 -6.741117e+00  1.000000e+01
      vertex  4.500000e+01  6.375000e+00  1.000000e+01
      vertex  4.500000e+01 -6.375000e+00  1.000000e+01
    endloop
  endfacet
  facet normal  0.000000e+00  0.000000e+00  1.000000e+00
    outer loop
      vertex  8.800000e+00  9.000000e+00  1.000000e+01
      vertex  3.520000e+01  1.100000e+01  1.000000e+01
      vertex  8.800000e+00  1.100000e+01  1.000000e+01
    endloop
  endfacet
  facet normal  0.000000e+00  0.000000e+00  1.000000e+00
    outer loop
      vertex  4.375000e+01 -7.625000e+00  1.000000e+01
      vertex  3.991004e+01 -7.483256e+00  1.000000e+01
      vertex  3.965576e+01 -7.808309e+00  1.000000e+01
    endloop
  endfacet
  facet normal  -0.000000e+00  0.000000e+00  1.000000e+00
    outer loop
      vertex  4.375000e+01 -7.625000e+00  1.000000e+01
      vertex  3.965576e+01 -7.808309e+00  1.000000e+01
      vertex  3.912500e+01 -8.000000e+00  1.000000e+01
    endloop
  endfacet
  facet normal  -0.000000e+00  0.000000e+00  1.000000e+00
    outer loop
      vertex  4.375000e+01 -7.625000e+00  1.000000e+01
      vertex  3.912500e+01 -8.000000e+00  1.000000e+01
      vertex  4.400000e+01 -9.000000e+00  1.000000e+01
    endloop
  endfacet
  facet normal  0.000000e+00  -0.000000e+00  1.000000e+00
    outer loop
      vertex  4.375000e+01 -7.625000e+00  1.000000e+01
      vertex  4.400000e+01 -9.000000e+00  1.000000e+01
      vertex  4.411612e+01 -8.508883e+00  1.000000e+01
    endloop
  endfacet
  facet normal  0.000000e+00  0.000000e+00  1.000000e+00
    outer loop
      vertex  4.375000e+01  7.625000e+00  1.000000e+01
      vertex  4.411612e+01  8.508883e+00  1.000000e+01
      vertex  4.400000e+01  9.000000e+00  1.000000e+01
    endloop
  endfacet
  facet normal  0.000000e+00  0.000000e+00  1.000000e+00
    outer loop
      vertex  4.375000e+01  7.625000e+00  1.000000e+01
      vertex  4.400000e+01  9.000000e+00  1.000000e+01
      vertex  3.912500e+01  8.000000e+00  1.000000e+01
    endloop
  endfacet
  facet normal  0.000000e+00  0.000000e+00  1.000000e+00
    outer loop
      vertex  4.375000e+01  7.625000e+00  1.000000e+01
      vertex  3.912500e+01  8.000000e+00  1.000000e+01
      vertex  3.965577e+01  7.808308e+00  1.000000e+01
    endloop
  endfacet
  facet normal  0.000000e+00  0.000000e+00  9.999999e-01
    outer loop
      vertex  4.375000e+01  7.625000e+00  1.000000e+01
      vertex  3.965577e+01  7.808308e+00  1.000000e+01
      vertex  3.991004e+01  7.483255e+00  1.000000e+01
    endloop
  endfacet
  facet normal  -0.000000e+00  0.000000e+00  1.000000e+00
    outer loop
      vertex  4.375000e+01  7.625000e+00  1.000000e+01
      vertex  3.991004e+01  7.483255e+00  1.000000e+01
      vertex  4.000000e+01  7.076923e+00  1.000000e+01
    endloop
  endfacet
  facet normal  -0.000000e+00  0.000000e+00  1.000000e+00
    outer loop
      vertex  4.375000e+01  7.625000e+00  1.000000e+01
      vertex  4.000000e+01  7.076923e+00  1.000000e+01
      vertex  4.000000e+01 -7.076923e+00  1.000000e+01
    endloop
  endfacet
  facet normal  0.000000e+00  0.000000e+00  1.000000e+00
    outer loop
      vertex  4.375000e+01  7.625000e+00  1.000000e+01
      vertex  4.000000e+01 -7.076923e+00  1.000000e+01
      vertex  4.411612e+01  6.741117e+00  1.000000e+01
    endloop
  endfacet
  facet normal  -0.000000e+00  0.000000e+00  9.999999e-01
    outer loop
      vertex  4.000000e+01 -7.076923e+00  1.000000e+01
      vertex  3.991004e+01 -7.483256e+00  1.000000e+01
      vertex  4.375000e+01 -7.625000e+00  1.000000e+01
    endloop
  endfacet
  facet normal  0.000000e+00  -0.000000e+00  9.999999e-01
    outer loop
      vertex  4.000000e+01 -7.076923e+00  1.000000e+01
      vertex  4.375000e+01 -7.625000e+00  1.000000e+01
      vertex  4.411612e+01 -6.741117e+00  1.000000e+01
    endloop
  endfacet
  facet normal  0.000000e+00  -0.000000e+00  1.000000e+00
    outer loop
      vertex  4.000000e+01 -7.076923e+00  1.000000e+01
      vertex  4.411612e+01 -6.741117e+00  1.000000e+01
      vertex  4.500000e+01 -6.375000e+00  1.000000e+01
    endloop
  endfacet
  facet normal  0.000000e+00  -0.000000e+00  1.000000e+00
    outer loop
      vertex  4.000000e+01 -7.076923e+00  1.000000e+01
      vertex  4.500000e+01 -6.375000e+00  1.000000e+01
      vertex  4.500000e+01  6.375000e+00  1.000000e+01
    endloop
  endfacet
  facet normal  0.000000e+00  0.000000e+00  9.999999e-01
    outer loop
      vertex  4.000000e+01 -7.076923e+00  1.000000e+01
      vertex  4.500000e+01  6.375000e+00  1.000000e+01
      vertex  4.411612e+01  6.741117e+00  1.000000e+01
    endloop
  endfacet
  facet normal  0.000000e+00  0.000000e+00  9.999999e-01
    outer loop
      vertex  4.400000e+01 -1.100000e+01  1.000000e+01
      vertex  5.500000e+01 -1.100000e+01  1.000000e+01
      vertex  4.588388e+01 -8.508883e+00  1.000000e+01
    endloop
  endfacet
  facet normal  0.000000e+00  0.000000e+00  9.999999e-01
    outer loop
      vertex  4.400000e+01 -1.100000e+01  1.000000e+01
      vertex  4.588388e+01 -8.508883e+00  1.000000e+01
      vertex  4.500000e+01 -8.875000e+00  1.000000e+01
    endloop
  endfacet
  facet normal  0.000000e+00  0.000000e+00  1.000000e+00
    outer loop
      vertex  4.400000e+01 -1.100000e+01  1.000000e+01
      vertex  4.500000e+01 -8.875000e+00  1.000000e+01
      vertex  4.411612e+01 -8.508883e+00  1.000000e+01
    endloop
  endfacet
  facet normal  0.000000e+00  0.000000e+00  9.999999e-01
    outer loop
      vertex  4.400000e+01 -1.100000e+01  1.000000e+01
      vertex  4.411612e+01 -8.508883e+00  1.000000e+01
      vertex  4.400000e+01 -9.000000e+00  1.000000e+01
    endloop
  endfacet
  facet normal  0.000000e+00  0.000000e+00  1.000000e+00
    outer loop
      vertex  3.520000e+01 -9.000000e+00  1.000000e+01
      vertex  4.400000e+01 -9.000000e+00  1.000000e+01
      vertex  3.912500e+01 -8.000000e+00  1.000000e+01
    endloop
  endfacet
  facet normal  0.000000e+00  0.000000e+00  1.000000e+00
    outer loop
      vertex  3.520000e+01 -9.000000e+00  1.000000e+01
      vertex  3.912500e+01 -8.000000e+00  1.000000e+01
      vertex  3.850000e+01 -8.000000e+00  1.000000e+01
    endloop
  endfacet
  facet normal  0.000000e+00  0.000000e+00  1.000000e+00
    outer loop
      vertex  3.520000e+01 -9.000000e+00  1.000000e+01
      vertex  3.850000e+01 -8.000000e+00  1.000000e+01
      vertex  3.787500e+01 -8.000000e+00  1.000000e+01
    endloop
  endfacet
  facet normal  0.000000e+00  0.000000e+00  1.000000e+00
    outer loop
      vertex  3.520000e+01 -9.000000e+00  1.000000e+01
      vertex  3.787500e+01 -8.000000e+00  1.000000e+01
      vertex  3.734423e+01 -7.808308e+00  1.000000e+01
    endloop
  endfacet
  facet normal  0.000000e+00  0.000000e+00  1.000000e+00
    outer loop
      vertex  8.800000e+00 -9.000000e+00  1.000000e+01
      vertex  8.800000e+00 -1.100000e+01  1.000000e+01
      vertex  3.520000e+01 -1.100000e+01  1.000000e+01
    endloop
  endfacet
  facet normal  0.000000e+00  -0.000000e+00  1.000000e+00
    outer loop
      vertex  8.800000e+00 -9.000000e+00  1.000000e+01
      vertex  3.520000e+01 -1.100000e+01  1.000000e+01
      vertex  3.520000e+01 -9.000000e+00  1.000000e+01
    endloop
  endfacet
  facet normal  0.000000e+00  -0.000000e+00  1.000000e+00
    outer loop
      vertex  8.800000e+00 -9.000000e+00  1.000000e+01
      vertex  3.520000e+01 -9.000000e+00  1.000000e+01
      vertex  3.734423e+01 -7.808308e+00  1.000000e+01
    endloop
  endfacet
  facet normal  0.000000e+00  -0.000000e+00  1.000000e+00
    outer loop
      vertex  0.000000e+00 -9.000000e+00  1.000000e+01
      vertex  8.800000e+00 -9.000000e+00  1.000000e+01
      vertex  3.734423e+01 -7.808308e+00  1.000000e+01
    endloop
  endfacet
  facet normal  0.000000e+00  0.000000e+00  1.000000e+00
    outer loop
      vertex  0.000000e+00 -9.000000e+00  1.000000e+01
      vertex  3.734423e+01 -7.808308e+00  1.000000e+01
      vertex  3.708996e+01 -7.483255e+00  1.000000e+01
    endloop
  endfacet
  facet normal  0.000000e+00  0.000000e+00  1.000000e+00
    outer loop
      vertex  0.000000e+00 -9.000000e+00  1.000000e+01
      vertex  3.708996e+01 -7.483255e+00  1.000000e+01
      vertex  3.700000e+01 -7.076923e+00  1.000000e+01
    endloop
  endfacet
  facet normal  0.000000e+00  0.000000e+00  1.000000e+00
    outer loop
      vertex  0.000000e+00 -9.000000e+00  1.000000e+01
      vertex  3.700000e+01 -7.076923e+00  1.000000e+01
      vertex  9.000000e+00 -4.000000e+00  1.000000e+01
    endloop
  endfacet
  facet normal  0.000000e+00  0.000000e+00  1.000000e+00
    outer loop
      vertex  0.000000e+00 -9.000000e+00  1.000000e+01
      vertex  9.000000e+00 -4.000000e+00  1.000000e+01
      vertex  0.000000e+00 -4.000000e+00  1.000000e+01
    endloop
  endfacet
  facet normal  0.000000e+00  0.000000e+00  1.000000e+00
    outer loop
      vertex  9.000000e+00  4.000000e+00  1.000000e+01
      vertex  9.000000e+00 -4.000000e+00  1.000000e+01
      vertex  2.350000e+01 -3.673940e-16  1.000000e+01
    endloop
  endfacet
  facet normal  0.000000e+00  -0.000000e+00  1.000000e+00
    outer loop
      vertex  9.000000e+00  4.000000e+00  1.000000e+01
      vertex  2.350000e+01 -3.673940e-16  1.000000e+01
      vertex  2.407295e+01  1.763356e+00  1.000000e+01
    endloop
  endfacet
  facet normal  0.000000e+00  -0.000000e+00  1.000000e+00
    outer loop
      vertex  9.000000e+00  4.000000e+00  1.000000e+01
      vertex  2.407295e+01  1.763356e+00  1.000000e+01
      vertex  2.557295e+01  2.853169e+00  1.000000e+01
    endloop
  endfacet
  facet normal  0.000000e+00  -0.000000e+00  1.000000e+00
    outer loop
      vertex  9.000000e+00  4.000000e+00  1.000000e+01
      vertex  2.557295e+01  2.853169e+00  1.000000e+01
      vertex  2.742705e+01  2.853169e+00  1.000000e+01
    endloop
  endfacet
  facet normal  0.000000e+00  -0.000000e+00  1.000000e+00
    outer loop
      vertex  9.000000e+00  4.000000e+00  1.000000e+01
      vertex  2.742705e+01  2.853169e+00  1.000000e+01
      vertex  3.700000e+01  7.076923e+00  1.000000e+01
    endloop
  endfacet
  facet normal  0.000000e+00  0.000000e+00  1.000000e+00
    outer loop
      vertex  9.000000e+00  4.000000e+00  1.000000e+01
      vertex  3.700000e+01  7.076923e+00  1.000000e+01
      vertex  0.000000e+00  4.000000e+00  1.000000e+01
    endloop
  endfacet
  facet normal  0.000000e+00  0.000000e+00  1.000000e+00
    outer loop
      vertex  3.520000e+01  9.000000e+00  1.000000e+01
      vertex  3.520000e+01  1.100000e+01  1.000000e+01
      vertex  8.800000e+00  9.000000e+00  1.000000e+01
    endloop
  endfacet
  facet normal  -0.000000e+00  0.000000e+00  1.000000e+00
    outer loop
      vertex  3.520000e+01  9.000000e+00  1.000000e+01
      vertex  8.800000e+00  9.000000e+00  1.000000e+01
      vertex  3.734424e+01  7.808309e+00  1.000000e+01
    endloop
  endfacet
  facet normal  0.000000e+00  -0.000000e+00  1.000000e+00
    outer loop
      vertex  3.520000e+01  9.000000e+00  1.000000e+01
      vertex  3.734424e+01  7.808309e+00  1.000000e+01
      vertex  3.787500e+01  8.000000e+00  1.000000e+01
    endloop
  endfacet
  facet normal  0.000000e+00  -0.000000e+00  1.000000e+00
    outer loop
      vertex  3.520000e+01  9.000000e+00  1.000000e+01
      vertex  3.787500e+01  8.000000e+00  1.000000e+01
      vertex  3.850000e+01  8.000000e+00  1.000000e+01
    endloop
  endfacet
  facet normal  0.000000e+00  -0.000000e+00  1.000000e+00
    outer loop
      vertex  3.520000e+01  9.000000e+00  1.000000e+01
      vertex  3.850000e+01  8.000000e+00  1.000000e+01
      vertex  3.912500e+01  8.000000e+00  1.000000e+01
    endloop
  endfacet
  facet normal  0.000000e+00  -0.000000e+00  1.000000e+00
    outer loop
      vertex  3.520000e+01  9.000000e+00  1.000000e+01
      vertex  3.912500e+01  8.000000e+00  1.000000e+01
      vertex  4.400000e+01  9.000000e+00  1.000000e+01
    endloop
  endfacet
  facet normal  -0.000000e+00  0.000000e+00  9.999999e-01
    outer loop
      vertex  4.400000e+01  1.100000e+01  1.000000e+01
      vertex  4.400000e+01  9.000000e+00  1.000000e+01
      vertex  4.411612e+01  8.508883e+00  1.000000e+01
    endloop
  endfacet
  facet normal  0.000000e+00  -0.000000e+00  1.000000e+00
    outer loop
      vertex  4.400000e+01  1.100000e+01  1.000000e+01
      vertex  4.411612e+01  8.508883e+00  1.000000e+01
      vertex  4.500000e+01  8.875000e+00  1.000000e+01
    endloop
  endfacet
  facet normal  -0.000000e+00  -0.000000e+00  9.999999e-01
    outer loop
      vertex  4.400000e+01  1.100000e+01  1.000000e+01
      vertex  4.500000e+01  8.875000e+00  1.000000e+01
      vertex  4.588388e+01  8.508883e+00  1.000000e+01
    endloop
  endfacet
  facet normal  0.000000e+00  0.000000e+00  1.000000e+00
    outer loop
      vertex  5.500000e+01 -1.100000e+01  1.000000e+01
      vertex  5.500000e+01  1.100000e+01  1.000000e+01
      vertex  4.588388e+01  8.508883e+00  1.000000e+01
    endloop
  endfacet
  facet normal  0.000000e+00  0.000000e+00  9.999999e-01
    outer loop
      vertex  5.500000e+01 -1.100000e+01  1.000000e+01
      vertex  4.588388e+01  8.508883e+00  1.000000e+01
      vertex  4.625000e+01  7.625000e+00  1.000000e+01
    endloop
  endfacet
  facet normal  0.000000e+00  0.000000e+00  1.000000e+00
    outer loop
      vertex  5.500000e+01 -1.100000e+01  1.000000e+01
      vertex  4.625000e+01  7.625000e+00  1.000000e+01
      vertex  4.588388e+01  6.741117e+00  1.000000e+01
    endloop
  endfacet
  facet normal  0.000000e+00  0.000000e+00  1.000000e+00
    outer loop
      vertex  5.500000e+01 -1.100000e+01  1.000000e+01
      vertex  4.588388e+01  6.741117e+00  1.000000e+01
      vertex  4.500000e+01  6.375000e+00  1.000000e+01
    endloop
  endfacet
  facet normal  0.000000e+00  0.000000e+00  1.000000e+00
    outer loop
      vertex  5.500000e+01 -1.100000e+01  1.000000e+01
      vertex  4.500000e+01  6.375000e+00  1.000000e+01
      vertex  4.588388e+01 -6.741117e+00  1.000000e+01
    endloop
  endfacet
  facet normal  0.000000e+00  0.000000e+00  1.000000e+00
    outer loop
      vertex  5.500000e+01 -1.100000e+01  1.000000e+01
      vertex  4.588388e+01 -6.741117e+00  1.000000e+01
      vertex  4.625000e+01 -7.625000e+00  1.000000e+01
    endloop
  endfacet
  facet normal  0.000000e+00  0.000000e+00  1.000000e+00
    outer loop
      vertex  5.500000e+01 -1.100000e+01  1.000000e+01
      vertex  4.625000e+01 -7.625000e+00  1.000000e+01
      vertex  4.588388e+01 -8.508883e+00  1.000000e+01
    endloop
  endfacet
  facet normal  0.000000e+00  0.000000e+00  1.000000e+00
    outer loop
      vertex  3.700000e+01 -7.076923e+00  1.000000e+01
      vertex  3.700000e+01  7.076923e+00  1.000000e+01
      vertex  2.892705e+01  1.763356e+00  1.000000e+01
    endloop
  endfacet
  facet normal  0.000000e+00  0.000000e+00  1.000000e+00
    outer loop
      vertex  3.700000e+01 -7.076923e+00  1.000000e+01
      vertex  2.892705e+01  1.763356e+00  1.000000e+01
      vertex  2.950000e+01  0.000000e+00  1.000000e+01
    endloop
  endfacet
  facet normal  0.000000e+00  0.000000e+00  1.000000e+00
    outer loop
      vertex  3.700000e+01 -7.076923e+00  1.000000e+01
      vertex  2.950000e+01  0.000000e+00  1.000000e+01
      vertex  2.892705e+01 -1.763356e+00  1.000000e+01
    endloop
  endfacet
  facet normal  0.000000e+00  0.000000e+00  1.000000e+00
    outer loop
      vertex  3.700000e+01 -7.076923e+00  1.000000e+01
      vertex  2.892705e+01 -1.763356e+00  1.000000e+01
      vertex  2.742705e+01 -2.853169e+00  1.000000e+01
    endloop
  endfacet
  facet normal  0.000000e+00  0.000000e+00  1.000000e+00
    outer loop
      vertex  3.700000e+01 -7.076923e+00  1.000000e+01
      vertex  2.742705e+01 -2.853169e+00  1.000000e+01
      vertex  9.000000e+00 -4.000000e+00  1.000000e+01
    endloop
  endfacet
  facet normal  0.000000e+00  -0.000000e+00  1.000000e+00
    outer loop
      vertex  0.000000e+00  4.000000e+00  1.000000e+01
      vertex  3.700000e+01  7.076923e+00  1.000000e+01
      vertex  3.708996e+01  7.483256e+00  1.000000e+01
    endloop
  endfacet
  facet normal  0.000000e+00  -0.000000e+00  1.000000e+00
    outer loop
      vertex  0.000000e+00  4.000000e+00  1.000000e+01
      vertex  3.708996e+01  7.483256e+00  1.000000e+01
      vertex  3.734424e+01  7.808309e+00  1.000000e+01
    endloop
  endfacet
  facet normal  0.000000e+00  0.000000e+00  1.000000e+00
    outer loop
      vertex  0.000000e+00  4.000000e+00  1.000000e+01
      vertex  3.734424e+01  7.808309e+00  1.000000e+01
      vertex  8.800000e+00  9.000000e+00  1.000000e+01
    endloop
  endfacet
  facet normal  0.000000e+00  0.000000e+00  1.000000e+00
    outer loop
      vertex  0.000000e+00  4.000000e+00  1.000000e+01
      vertex  8.800000e+00  9.000000e+00  1.000000e+01
      vertex  0.000000e+00  9.000000e+00  1.000000e+01
    endloop
  endfacet
  facet normal  0.000000e+00  0.000000e+00  1.000000e+00
    outer loop
      vertex  9.000000e+00 -4.000000e+00  1.000000e+01
      vertex  2.742705e+01 -2.853169e+00  1.000000e+01
      vertex  2.557295e+01 -2.853169e+00  1.000000e+01
    endloop
  endfacet
  facet normal  0.000000e+00  0.000000e+00  1.000000e+00
    outer loop
      vertex  9.000000e+00 -4.000000e+00  1.000000e+01
      vertex  2.557295e+01 -2.853169e+00  1.000000e+01
      vertex  2.407295e+01 -1.763356e+00  1.000000e+01
    endloop
  endfacet
  facet normal  0.000000e+00  0.000000e+00  1.000000e+00
    outer loop
      vertex  9.000000e+00 -4.000000e+00  1.000000e+01
      vertex  2.407295e+01 -1.763356e+00  1.000000e+01
      vertex  2.350000e+01 -3.673940e-16  1.000000e+01
    endloop
  endfacet
  facet normal  0.000000e+00  7.352530e-01  6.777928e-01
    outer loop
      vertex  3.850000e+01 -8.000000e+00  1.000000e+01
      vertex  3.752467e+01 -7.669841e+00  9.641851e+00
      vertex  3.787500e+01 -8.000000e+00  1.000000e+01
    endloop
  endfacet
  facet normal  2.259403e-01  9.409485e-01  2.521246e-01
    outer loop
      vertex  3.850000e+01 -8.000000e+00  1.000000e+01
      vertex  3.849999e+01 -7.866025e+00  9.500000e+00
      vertex  3.752467e+01 -7.669841e+00  9.641851e+00
    endloop
  endfacet
  facet normal  2.995443e-01  8.293926e-01  4.715731e-01
    outer loop
      vertex  3.787500e+01 -8.000000e+00  1.000000e+01
      vertex  3.752467e+01 -7.669841e+00  9.641851e+00
      vertex  3.734423e+01 -7.808308e+00  1.000000e+01
    endloop
  endfacet
  facet normal  2.380322e-01  6.867821e-01  6.867831e-01
    outer loop
      vertex  3.849999e+01 -7.500000e+00  9.133975e+00
      vertex  3.752467e+01 -7.669841e+00  9.641851e+00
      vertex  3.849999e+01 -7.866025e+00  9.500000e+00
    endloop
  endfacet
  facet normal  6.649005e-01  5.201261e-01  5.360748e-01
    outer loop
      vertex  3.708996e+01 -7.483255e+00  1.000000e+01
      vertex  3.734423e+01 -7.808308e+00  1.000000e+01
      vertex  3.752467e+01 -7.669841e+00  9.641851e+00
    endloop
  endfacet
  facet normal  4.163399e-01  2.353213e-01  8.782282e-01
    outer loop
      vertex  3.849999e+01 -7.500000e+00  9.133975e+00
      vertex  3.849999e+01 -7.000000e+00  9.000000e+00
      vertex  3.752467e+01 -7.669841e+00  9.641851e+00
    endloop
  endfacet
  facet normal  2.374481e-01  4.692613e-01  8.505364e-01
    outer loop
      vertex  3.752467e+01 -7.669841e+00  9.641851e+00
      vertex  3.849999e+01 -7.000000e+00  9.000000e+00
      vertex  3.765119e+01 -7.004245e+00  9.239305e+00
    endloop
  endfacet
  facet normal  6.792082e-01  2.809649e-01  6.780376e-01
    outer loop
      vertex  3.752467e+01 -7.669841e+00  9.641851e+00
      vertex  3.765119e+01 -7.004245e+00  9.239305e+00
      vertex  3.708996e+01 -7.483255e+00  1.000000e+01
    endloop
  endfacet
  facet normal  7.415559e-01  1.641735e-01  6.504935e-01
    outer loop
      vertex  3.708996e+01 -7.483255e+00  1.000000e+01
      vertex  3.765119e+01 -7.004245e+00  9.239305e+00
      vertex  3.700000e+01 -7.076923e+00  1.000000e+01
    endloop
  endfacet
  facet normal -6.314827e-01  4.939929e-01  5.976626e-01
    outer loop
      vertex  3.991004e+01 -7.483256e+00  1.000000e+01
      vertex  3.929808e+01 -7.675787e+00  9.512540e+00
      vertex  3.965576e+01 -7.808309e+00  1.000000e+01
    endloop
  endfacet
  facet normal -1.768313e-01  6.959631e-01  6.959641e-01
    outer loop
      vertex  3.849999e+01 -7.500000e+00  9.133975e+00
      vertex  3.849999e+01 -7.866025e+00  9.500000e+00
      vertex  3.929808e+01 -7.675787e+00  9.512540e+00
    endloop
  endfacet
  facet normal  0.000000e+00  0.000000e+00  1.000000e+00
    outer loop
      vertex  3.912500e+01 -8.000000e+00  1.000000e+01
      vertex  3.965576e+01 -7.808309e+00  1.000000e+01
      vertex  3.850000e+01 -8.000000e+00  1.000000e+01
    endloop
  endfacet
  facet normal -1.525284e-01  9.196399e-01  3.619359e-01
    outer loop
      vertex  3.850000e+01 -8.000000e+00  1.000000e+01
      vertex  3.965576e+01 -7.808309e+00  1.000000e+01
      vertex  3.929808e+01 -7.675787e+00  9.512540e+00
    endloop
  endfacet
  facet normal -2.281344e-01  9.404536e-01  2.519954e-01
    outer loop
      vertex  3.850000e+01 -8.000000e+00  1.000000e+01
      vertex  3.929808e+01 -7.675787e+00  9.512540e+00
      vertex  3.849999e+01 -7.866025e+00  9.500000e+00
    endloop
  endfacet
  facet normal -3.132013e-01  2.457978e-01  9.173267e-01
    outer loop
      vertex  3.849999e+01 -7.000000e+00  9.000000e+00
      vertex  3.849999e+01 -7.500000e+00  9.133975e+00
      vertex  3.949920e+01 -7.008766e+00  9.343505e+00
    endloop
  endfacet
  facet normal -3.452441e-01  3.270268e-01  8.796932e-01
    outer loop
      vertex  3.949920e+01 -7.008766e+00  9.343505e+00
      vertex  3.849999e+01 -7.500000e+00  9.133975e+00
      vertex  3.929808e+01 -7.675787e+00  9.512540e+00
    endloop
  endfacet
  facet normal -7.210326e-01  3.664337e-01  5.880802e-01
    outer loop
      vertex  3.949920e+01 -7.008766e+00  9.343505e+00
      vertex  3.929808e+01 -7.675787e+00  9.512540e+00
      vertex  4.000000e+01 -7.076923e+00  1.000000e+01
    endloop
  endfacet
  facet normal -6.437324e-01  1.425160e-01  7.518628e-01
    outer loop
      vertex  4.000000e+01 -7.076923e+00  1.000000e+01
      vertex  3.929808e+01 -7.675787e+00  9.512540e+00
      vertex  3.991004e+01 -7.483256e+00  1.000000e+01
    endloop
  endfacet
  facet normal  6.314827e-01 -4.939929e-01  5.976626e-01
    outer loop
      vertex  3.708996e+01  7.483256e+00  1.000000e+01
      vertex  3.770192e+01  7.675787e+00  9.512540e+00
      vertex  3.734424e+01  7.808309e+00  1.000000e+01
    endloop
  endfacet
  facet normal  1.768313e-01 -6.959631e-01  6.959641e-01
    outer loop
      vertex  3.850001e+01  7.500000e+00  9.133975e+00
      vertex  3.850001e+01  7.866025e+00  9.500000e+00
      vertex  3.770192e+01  7.675787e+00  9.512540e+00
    endloop
  endfacet
  facet normal  0.000000e+00  0.000000e+00  1.000000e+00
    outer loop
      vertex  3.787500e+01  8.000000e+00  1.000000e+01
      vertex  3.734424e+01  7.808309e+00  1.000000e+01
      vertex  3.850000e+01  8.000000e+00  1.000000e+01
    endloop
  endfacet
  facet normal  1.525284e-01 -9.196399e-01  3.619359e-01
    outer loop
      vertex  3.850000e+01  8.000000e+00  1.000000e+01
      vertex  3.734424e+01  7.808309e+00  1.000000e+01
      vertex  3.770192e+01  7.675787e+00  9.512540e+00
    endloop
  endfacet
  facet normal  2.281344e-01 -9.404536e-01  2.519954e-01
    outer loop
      vertex  3.850000e+01  8.000000e+00  1.000000e+01
      vertex  3.770192e+01  7.675787e+00  9.512540e+00
      vertex  3.850001e+01  7.866025e+00  9.500000e+00
    endloop
  endfacet
  facet normal  3.132013e-01 -2.457978e-01  9.173267e-01
    outer loop
      vertex  3.850001e+01  7.000000e+00  9.000000e+00
      vertex  3.850001e+01  7.500000e+00  9.133975e+00
      vertex  3.750080e+01  7.008766e+00  9.343505e+00
    endloop
  endfacet
  facet normal  3.452441e-01 -3.270268e-01  8.796932e-01
    outer loop
      vertex  3.750080e+01  7.008766e+00  9.343505e+00
      vertex  3.850001e+01  7.500000e+00  9.133975e+00
      vertex  3.770192e+01  7.675787e+00  9.512540e+00
    endloop
  endfacet
  facet normal  7.210326e-01 -3.664337e-01  5.880802e-01
    outer loop
      vertex  3.750080e+01  7.008766e+00  9.343505e+00
      vertex  3.770192e+01  7.675787e+00  9.512540e+00
      vertex  3.700000e+01  7.076923e+00  1.000000e+01
    endloop
  endfacet
  facet normal  6.437324e-01 -1.425160e-01  7.518628e-01
    outer loop
      vertex  3.700000e+01  7.076923e+00  1.000000e+01
      vertex  3.770192e+01  7.675787e+00  9.512540e+00
      vertex  3.708996e+01  7.483256e+00  1.000000e+01
    endloop
  endfacet
  facet normal  0.000000e+00 -7.352530e-01  6.777928e-01
    outer loop
      vertex  3.850000e+01  8.000000e+00  1.000000e+01
      vertex  3.947533e+01  7.669841e+00  9.641851e+00
      vertex  3.912500e+01  8.000000e+00  1.000000e+01
    endloop
  endfacet
  facet normal -2.259403e-01 -9.409485e-01  2.521246e-01
    outer loop
      vertex  3.850000e+01  8.000000e+00  1.000000e+01
      vertex  3.850001e+01  7.866025e+00  9.500000e+00
      vertex  3.947533e+01  7.669841e+00  9.641851e+00
    endloop
  endfacet
  facet normal -2.995443e-01 -8.293926e-01  4.715731e-01
    outer loop
      vertex  3.912500e+01  8.000000e+00  1.000000e+01
      vertex  3.947533e+01  7.669841e+00  9.641851e+00
      vertex  3.965577e+01  7.808308e+00  1.000000e+01
    endloop
  endfacet
  facet normal -2.380322e-01 -6.867821e-01  6.867831e-01
    outer loop
      vertex  3.850001e+01  7.500000e+00  9.133975e+00
      vertex  3.947533e+01  7.669841e+00  9.641851e+00
      vertex  3.850001e+01  7.866025e+00  9.500000e+00
    endloop
  endfacet
  facet normal -6.649005e-01 -5.201261e-01  5.360748e-01
    outer loop
      vertex  3.991004e+01  7.483255e+00  1.000000e+01
      vertex  3.965577e+01  7.808308e+00  1.000000e+01
      vertex  3.947533e+01  7.669841e+00  9.641851e+00
    endloop
  endfacet
  facet normal -4.163399e-01 -2.353213e-01  8.782282e-01
    outer loop
      vertex  3.850001e+01  7.500000e+00  9.133975e+00
      vertex  3.850001e+01  7.000000e+00  9.000000e+00
      vertex  3.947533e+01  7.669841e+00  9.641851e+00
    endloop
  endfacet
  facet normal -2.374481e-01 -4.692613e-01  8.505364e-01
    outer loop
      vertex  3.947533e+01  7.669841e+00  9.641851e+00
      vertex  3.850001e+01  7.000000e+00  9.000000e+00
      vertex  3.934881e+01  7.004245e+00  9.239305e+00
    endloop
  endfacet
  facet normal -6.792082e-01 -2.809649e-01  6.780376e-01
    outer loop
      vertex  3.947533e+01  7.669841e+00  9.641851e+00
      vertex  3.934881e+01  7.004245e+00  9.239305e+00
      vertex  3.991004e+01  7.483255e+00  1.000000e+01
    endloop
  endfacet
  facet normal -7.415559e-01 -1.641735e-01  6.504935e-01
    outer loop
      vertex  3.991004e+01  7.483255e+00  1.000000e+01
      vertex  3.934881e+01  7.004245e+00  9.239305e+00
      vertex  4.000000e+01  7.076923e+00  1.000000e+01
    endloop
  endfacet
  facet normal  0.000000e+00  0.000000e+00 -1.000000e+00
    outer loop
      vertex  3.520000e+01  1.100000e+01  8.000000e+00
      vertex  9.000000e+00  4.000000e+00  8.000000e+00
      vertex  8.800000e+00  1.100000e+01  8.000000e+00
    endloop
  endfacet
  facet normal  0.000000e+00  0.000000e+00 -9.999999e-01
    outer loop
      vertex  4.400000e+01  5.000000e+00  8.000000e+00
      vertex  5.500000e+01 -6.500000e+00  8.000000e+00
      vertex  4.645000e+01 -3.200000e+00  8.000000e+00
    endloop
  endfacet
  facet normal  -0.000000e+00  0.000000e+00 -1.000000e+00
    outer loop
      vertex  4.400000e+01  5.000000e+00  8.000000e+00
      vertex  4.645000e+01 -3.200000e+00  8.000000e+00
      vertex  4.556612e+01 -3.566117e+00  8.000000e+00
    endloop
  endfacet
  facet normal  -0.000000e+00  0.000000e+00 -1.000000e+00
    outer loop
      vertex  4.400000e+01  5.000000e+00  8.000000e+00
      vertex  4.556612e+01 -3.566117e+00  8.000000e+00
      vertex  4.520000e+01 -4.450000e+00  8.000000e+00
    endloop
  endfacet
  facet normal  -0.000000e+00  0.000000e+00 -1.000000e+00
    outer loop
      vertex  4.400000e+01  5.000000e+00  8.000000e+00
      vertex  4.520000e+01 -4.450000e+00  8.000000e+00
      vertex  4.400000e+01 -5.000000e+00  8.000000e+00
    endloop
  endfacet
  facet normal  0.000000e+00  0.000000e+00 -1.000000e+00
    outer loop
      vertex  4.400000e+01 -6.500000e+00  8.000000e+00
      vertex  4.400000e+01 -9.000000e+00  8.000000e+00
      vertex  3.520000e+01 -9.000000e+00  8.000000e+00
    endloop
  endfacet
  facet normal  0.000000e+00  0.000000e+00 -1.000000e+00
    outer loop
      vertex  4.400000e+01 -6.500000e+00  8.000000e+00
      vertex  3.520000e+01 -9.000000e+00  8.000000e+00
      vertex  3.700000e+01 -5.000000e+00  8.000000e+00
    endloop
  endfacet
  facet normal  0.000000e+00  0.000000e+00 -1.000000e+00
    outer loop
      vertex  4.400000e+01 -6.500000e+00  8.000000e+00
      vertex  3.700000e+01 -5.000000e+00  8.000000e+00
      vertex  4.400000e+01 -5.000000e+00  8.000000e+00
    endloop
  endfacet
  facet normal  0.000000e+00  0.000000e+00 -1.000000e+00
    outer loop
      vertex  4.400000e+01 -6.500000e+00  8.000000e+00
      vertex  4.400000e+01 -5.000000e+00  8.000000e+00
      vertex  4.520000e+01 -4.450000e+00  8.000000e+00
    endloop
  endfacet
  facet normal  0.000000e+00  -0.000000e+00 -9.999999e-01
    outer loop
      vertex  4.400000e+01 -6.500000e+00  8.000000e+00
      vertex  4.520000e+01 -4.450000e+00  8.000000e+00
      vertex  4.556612e+01 -5.333883e+00  8.000000e+00
    endloop
  endfacet
  facet normal  0.000000e+00  -0.000000e+00 -1.000000e+00
    outer loop
      vertex  4.400000e+01 -6.500000e+00  8.000000e+00
      vertex  4.556612e+01 -5.333883e+00  8.000000e+00
      vertex  4.645000e+01 -5.700000e+00  8.000000e+00
    endloop
  endfacet
  facet normal  0.000000e+00  -0.000000e+00 -1.000000e+00
    outer loop
      vertex  4.400000e+01 -6.500000e+00  8.000000e+00
      vertex  4.645000e+01 -5.700000e+00  8.000000e+00
      vertex  5.500000e+01 -6.500000e+00  8.000000e+00
    endloop
  endfacet
  facet normal  0.000000e+00  0.000000e+00 -1.000000e+00
    outer loop
      vertex  5.500000e+01 -6.500000e+00  8.000000e+00
      vertex  4.645000e+01 -5.700000e+00  8.000000e+00
      vertex  4.733389e+01 -5.333883e+00  8.000000e+00
    endloop
  endfacet
  facet normal  0.000000e+00  0.000000e+00 -9.999999e-01
    outer loop
      vertex  5.500000e+01 -6.500000e+00  8.000000e+00
      vertex  4.733389e+01 -5.333883e+00  8.000000e+00
      vertex  4.770000e+01 -4.450000e+00  8.000000e+00
    endloop
  endfacet
  facet normal  0.000000e+00  0.000000e+00 -1.000000e+00
    outer loop
      vertex  5.500000e+01 -6.500000e+00  8.000000e+00
      vertex  4.770000e+01 -4.450000e+00  8.000000e+00
      vertex  4.733389e+01 -3.566117e+00  8.000000e+00
    endloop
  endfacet
  facet normal  0.000000e+00  0.000000e+00 -1.000000e+00
    outer loop
      vertex  5.500000e+01 -6.500000e+00  8.000000e+00
      vertex  4.733389e+01 -3.566117e+00  8.000000e+00
      vertex  4.645000e+01 -3.200000e+00  8.000000e+00
    endloop
  endfacet
  facet normal  0.000000e+00  0.000000e+00 -1.000000e+00
    outer loop
      vertex  3.520000e+01 -9.000000e+00  8.000000e+00
      vertex  3.520000e+01 -1.100000e+01  8.000000e+00
      vertex  8.800000e+00 -1.100000e+01  8.000000e+00
    endloop
  endfacet
  facet normal  0.000000e+00  0.000000e+00 -1.000000e+00
    outer loop
      vertex  3.520000e+01 -9.000000e+00  8.000000e+00
      vertex  8.800000e+00 -1.100000e+01  8.000000e+00
      vertex  8.800000e+00 -9.000000e+00  8.000000e+00
    endloop
  endfacet
  facet normal  0.000000e+00  0.000000e+00 -1.000000e+00
    outer loop
      vertex  3.520000e+01 -9.000000e+00  8.000000e+00
      vertex  8.800000e+00 -9.000000e+00  8.000000e+00
      vertex  3.700000e+01 -5.000000e+00  8.000000e+00
    endloop
  endfacet
  facet normal  0.000000e+00  0.000000e+00 -1.000000e+00
    outer loop
      vertex  9.000000e+00 -4.000000e+00  8.000000e+00
      vertex  9.000000e+00  4.000000e+00  8.000000e+00
      vertex  3.520000e+01  1.100000e+01  8.000000e+00
    endloop
  endfacet
  facet normal  0.000000e+00  0.000000e+00 -1.000000e+00
    outer loop
      vertex  9.000000e+00 -4.000000e+00  8.000000e+00
      vertex  3.520000e+01  1.100000e+01  8.000000e+00
      vertex  2.407295e+01  1.763356e+00  8.000000e+00
    endloop
  endfacet
  facet normal  0.000000e+00  0.000000e+00 -1.000000e+00
    outer loop
      vertex  9.000000e+00 -4.000000e+00  8.000000e+00
      vertex  2.407295e+01  1.763356e+00  8.000000e+00
      vertex  2.350000e+01 -3.673940e-16  8.000000e+00
    endloop
  endfacet
  facet normal  0.000000e+00  -0.000000e+00 -1.000000e+00
    outer loop
      vertex  9.000000e+00 -4.000000e+00  8.000000e+00
      vertex  2.350000e+01 -3.673940e-16  8.000000e+00
      vertex  2.407295e+01 -1.763356e+00  8.000000e+00
    endloop
  endfacet
  facet normal  0.000000e+00  -0.000000e+00 -1.000000e+00
    outer loop
      vertex  9.000000e+00 -4.000000e+00  8.000000e+00
      vertex  2.407295e+01 -1.763356e+00  8.000000e+00
      vertex  2.557295e+01 -2.853169e+00  8.000000e+00
    endloop
  endfacet
  facet normal  0.000000e+00  0.000000e+00 -1.000000e+00
    outer loop
      vertex  3.700000e+01 -5.000000e+00  8.000000e+00
      vertex  8.800000e+00 -9.000000e+00  8.000000e+00
      vertex  0.000000e+00 -9.000000e+00  8.000000e+00
    endloop
  endfacet
  facet normal  0.000000e+00  0.000000e+00 -1.000000e+00
    outer loop
      vertex  3.700000e+01 -5.000000e+00  8.000000e+00
      vertex  0.000000e+00 -9.000000e+00  8.000000e+00
      vertex  0.000000e+00 -4.000000e+00  8.000000e+00
    endloop
  endfacet
  facet normal  0.000000e+00  0.000000e+00 -1.000000e+00
    outer loop
      vertex  3.700000e+01 -5.000000e+00  8.000000e+00
      vertex  0.000000e+00 -4.000000e+00  8.000000e+00
      vertex  9.000000e+00 -4.000000e+00  8.000000e+00
    endloop
  endfacet
  facet normal  0.000000e+00  0.000000e+00 -1.000000e+00
    outer loop
      vertex  3.700000e+01 -5.000000e+00  8.000000e+00
      vertex  9.000000e+00 -4.000000e+00  8.000000e+00
      vertex  2.557295e+01 -2.853169e+00  8.000000e+00
    endloop
  endfacet
  facet normal  0.000000e+00  0.000000e+00 -1.000000e+00
    outer loop
      vertex  3.700000e+01 -5.000000e+00  8.000000e+00
      vertex  2.557295e+01 -2.853169e+00  8.000000e+00
      vertex  2.742705e+01 -2.853169e+00  8.000000e+00
    endloop
  endfacet
  facet normal  0.000000e+00  0.000000e+00 -1.000000e+00
    outer loop
      vertex  3.700000e+01 -5.000000e+00  8.000000e+00
      vertex  2.742705e+01 -2.853169e+00  8.000000e+00
      vertex  2.892705e+01 -1.763356e+00  8.000000e+00
    endloop
  endfacet
  facet normal  0.000000e+00  0.000000e+00 -1.000000e+00
    outer loop
      vertex  3.700000e+01 -5.000000e+00  8.000000e+00
      vertex  2.892705e+01 -1.763356e+00  8.000000e+00
      vertex  2.950000e+01  0.000000e+00  8.000000e+00
    endloop
  endfacet
  facet normal  0.000000e+00  0.000000e+00 -1.000000e+00
    outer loop
      vertex  3.700000e+01 -5.000000e+00  8.000000e+00
      vertex  2.950000e+01  0.000000e+00  8.000000e+00
      vertex  3.520000e+01  9.000000e+00  8.000000e+00
    endloop
  endfacet
  facet normal  0.000000e+00  0.000000e+00 -1.000000e+00
    outer loop
      vertex  3.700000e+01 -5.000000e+00  8.000000e+00
      vertex  3.520000e+01  9.000000e+00  8.000000e+00
      vertex  3.700000e+01  5.000000e+00  8.000000e+00
    endloop
  endfacet
  facet normal  -0.000000e+00  0.000000e+00 -1.000000e+00
    outer loop
      vertex  3.520000e+01  1.100000e+01  8.000000e+00
      vertex  3.520000e+01  9.000000e+00  8.000000e+00
      vertex  2.950000e+01  0.000000e+00  8.000000e+00
    endloop
  endfacet
  facet normal  0.000000e+00  0.000000e+00 -1.000000e+00
    outer loop
      vertex  3.520000e+01  1.100000e+01  8.000000e+00
      vertex  2.950000e+01  0.000000e+00  8.000000e+00
      vertex  2.892705e+01  1.763356e+00  8.000000e+00
    endloop
  endfacet
  facet normal  0.000000e+00  0.000000e+00 -1.000000e+00
    outer loop
      vertex  3.520000e+01  1.100000e+01  8.000000e+00
      vertex  2.892705e+01  1.763356e+00  8.000000e+00
      vertex  2.742705e+01  2.853169e+00  8.000000e+00
    endloop
  endfacet
  facet normal  0.000000e+00  0.000000e+00 -1.000000e+00
    outer loop
      vertex  3.520000e+01  1.100000e+01  8.000000e+00
      vertex  2.742705e+01  2.853169e+00  8.000000e+00
      vertex  2.557295e+01  2.853169e+00  8.000000e+00
    endloop
  endfacet
  facet normal  -0.000000e+00  0.000000e+00 -9.999999e-01
    outer loop
      vertex  3.520000e+01  1.100000e+01  8.000000e+00
      vertex  2.557295e+01  2.853169e+00  8.000000e+00
      vertex  2.407295e+01  1.763356e+00  8.000000e+00
    endloop
  endfacet
  facet normal  0.000000e+00  0.000000e+00 -1.000000e+00
    outer loop
      vertex  5.500000e+01  6.500000e+00  8.000000e+00
      vertex  5.500000e+01 -6.500000e+00  8.000000e+00
      vertex  4.400000e+01  6.500000e+00  8.000000e+00
    endloop
  endfacet
  facet normal  0.000000e+00  0.000000e+00 -1.000000e+00
    outer loop
      vertex  4.400000e+01  6.500000e+00  8.000000e+00
      vertex  5.500000e+01 -6.500000e+00  8.000000e+00
      vertex  4.400000e+01  5.000000e+00  8.000000e+00
    endloop
  endfacet
  facet normal  0.000000e+00  0.000000e+00 -1.000000e+00
    outer loop
      vertex  4.400000e+01  6.500000e+00  8.000000e+00
      vertex  4.400000e+01  5.000000e+00  8.000000e+00
      vertex  3.700000e+01  5.000000e+00  8.000000e+00
    endloop
  endfacet
  facet normal  0.000000e+00  0.000000e+00 -1.000000e+00
    outer loop
      vertex  0.000000e+00  4.000000e+00  8.000000e+00
      vertex  0.000000e+00  9.000000e+00  8.000000e+00
      vertex  9.000000e+00  4.000000e+00  8.000000e+00
    endloop
  endfacet
  facet normal  0.000000e+00  0.000000e+00 -1.000000e+00
    outer loop
      vertex  9.000000e+00  4.000000e+00  8.000000e+00
      vertex  0.000000e+00  9.000000e+00  8.000000e+00
      vertex  8.800000e+00  9.000000e+00  8.000000e+00
    endloop
  endfacet
  facet normal  0.000000e+00  0.000000e+00 -1.000000e+00
    outer loop
      vertex  9.000000e+00  4.000000e+00  8.000000e+00
      vertex  8.800000e+00  9.000000e+00  8.000000e+00
      vertex  8.800000e+00  1.100000e+01  8.000000e+00
    endloop
  endfacet
  facet normal  0.000000e+00  0.000000e+00 -1.000000e+00
    outer loop
      vertex  4.400000e+01  9.000000e+00  8.000000e+00
      vertex  4.400000e+01  6.500000e+00  8.000000e+00
      vertex  3.520000e+01  9.000000e+00  8.000000e+00
    endloop
  endfacet
  facet normal  0.000000e+00  0.000000e+00 -1.000000e+00
    outer loop
      vertex  3.520000e+01  9.000000e+00  8.000000e+00
      vertex  4.400000e+01  6.500000e+00  8.000000e+00
      vertex  3.700000e+01  5.000000e+00  8.000000e+00
    endloop
  endfacet
  facet normal  9.238799e-01  3.826827e-01  -0.000000e+00
    outer loop
      vertex  4.770000e+01 -4.450000e+00  8.000000e+00
      vertex  4.770000e+01 -4.450000e+00  6.000000e+00
      vertex  4.733389e+01 -3.566117e+00  8.000000e+00
    endloop
  endfacet
  facet normal  9.238799e-01  3.826827e-01  0.000000e+00
    outer loop
      vertex  4.733389e+01 -3.566117e+00  8.000000e+00
      vertex  4.770000e+01 -4.450000e+00  6.000000e+00
      vertex  4.733389e+01 -3.566117e+00  6.000000e+00
    endloop
  endfacet
  facet normal  3.826831e-01  9.238797e-01  -0.000000e+00
    outer loop
      vertex  4.733389e+01 -3.566117e+00  8.000000e+00
      vertex  4.733389e+01 -3.566117e+00  6.000000e+00
      vertex  4.645000e+01 -3.200000e+00  8.000000e+00
    endloop
  endfacet
  facet normal  3.826831e-01  9.238797e-01  0.000000e+00
    outer loop
      vertex  4.645000e+01 -3.200000e+00  8.000000e+00
      vertex  4.733389e+01 -3.566117e+00  6.000000e+00
      vertex  4.645000e+01 -3.200000e+00  6.000000e+00
    endloop
  endfacet
  facet normal -3.826831e-01  9.238797e-01  0.000000e+00
    outer loop
      vertex  4.645000e+01 -3.200000e+00  8.000000e+00
      vertex  4.645000e+01 -3.200000e+00  6.000000e+00
      vertex  4.556612e+01 -3.566117e+00  8.000000e+00
    endloop
  endfacet
  facet normal -3.826831e-01  9.238797e-01  0.000000e+00
    outer loop
      vertex  4.556612e+01 -3.566117e+00  8.000000e+00
      vertex  4.645000e+01 -3.200000e+00  6.000000e+00
      vertex  4.556612e+01 -3.566117e+00  6.000000e+00
    endloop
  endfacet
  facet normal -9.238799e-01  3.826827e-01  0.000000e+00
    outer loop
      vertex  4.556612e+01 -3.566117e+00  8.000000e+00
      vertex  4.556612e+01 -3.566117e+00  6.000000e+00
      vertex  4.520000e+01 -4.450000e+00  8.000000e+00
    endloop
  endfacet
  facet normal -9.238799e-01  3.826827e-01  0.000000e+00
    outer loop
      vertex  4.520000e+01 -4.450000e+00  8.000000e+00
      vertex  4.556612e+01 -3.566117e+00  6.000000e+00
      vertex  4.520000e+01 -4.450000e+00  6.000000e+00
    endloop
  endfacet
  facet normal -9.238799e-01 -3.826826e-01  0.000000e+00
    outer loop
      vertex  4.520000e+01 -4.450000e+00  8.000000e+00
      vertex  4.520000e+01 -4.450000e+00  6.000000e+00
      vertex  4.556612e+01 -5.333883e+00  8.000000e+00
    endloop
  endfacet
  facet normal -9.238799e-01 -3.826826e-01  -0.000000e+00
    outer loop
      vertex  4.556612e+01 -5.333883e+00  8.000000e+00
      vertex  4.520000e+01 -4.450000e+00  6.000000e+00
      vertex  4.556612e+01 -5.333883e+00  6.000000e+00
    endloop
  endfacet
  facet normal -3.826831e-01 -9.238797e-01  0.000000e+00
    outer loop
      vertex  4.556612e+01 -5.333883e+00  8.000000e+00
      vertex  4.556612e+01 -5.333883e+00  6.000000e+00
      vertex  4.645000e+01 -5.700000e+00  8.000000e+00
    endloop
  endfacet
  facet normal -3.826831e-01 -9.238797e-01  -0.000000e+00
    outer loop
      vertex  4.645000e+01 -5.700000e+00  8.000000e+00
      vertex  4.556612e+01 -5.333883e+00  6.000000e+00
      vertex  4.645000e+01 -5.700000e+00  6.000000e+00
    endloop
  endfacet
  facet normal  3.826831e-01 -9.238797e-01  0.000000e+00
    outer loop
      vertex  4.645000e+01 -5.700000e+00  8.000000e+00
      vertex  4.645000e+01 -5.700000e+00  6.000000e+00
      vertex  4.733389e+01 -5.333883e+00  8.000000e+00
    endloop
  endfacet
  facet normal  3.826831e-01 -9.238797e-01  0.000000e+00
    outer loop
      vertex  4.733389e+01 -5.333883e+00  8.000000e+00
      vertex  4.645000e+01 -5.700000e+00  6.000000e+00
      vertex  4.733389e+01 -5.333883e+00  6.000000e+00
    endloop
  endfacet
  facet normal  9.238799e-01 -3.826826e-01  0.000000e+00
    outer loop
      vertex  4.733389e+01 -5.333883e+00  8.000000e+00
      vertex  4.733389e+01 -5.333883e+00  6.000000e+00
      vertex  4.770000e+01 -4.450000e+00  8.000000e+00
    endloop
  endfacet
  facet normal  9.238799e-01 -3.826826e-01  0.000000e+00
    outer loop
      vertex  4.770000e+01 -4.450000e+00  8.000000e+00
      vertex  4.733389e+01 -5.333883e+00  6.000000e+00
      vertex  4.770000e+01 -4.450000e+00  6.000000e+00
    endloop
  endfacet
  facet normal  -0.000000e+00  0.000000e+00 -1.000000e+00
    outer loop
      vertex  4.556612e+01 -5.333883e+00  6.000000e+00
      vertex  4.733389e+01 -5.333883e+00  6.000000e+00
      vertex  4.645000e+01 -5.700000e+00  6.000000e+00
    endloop
  endfacet
  facet normal  0.000000e+00  0.000000e+00 -1.000000e+00
    outer loop
      vertex  4.733389e+01 -5.333883e+00  6.000000e+00
      vertex  4.556612e+01 -5.333883e+00  6.000000e+00
      vertex  4.770000e+01 -4.450000e+00  6.000000e+00
    endloop
  endfacet
  facet normal  -0.000000e+00  0.000000e+00 -1.000000e+00
    outer loop
      vertex  4.770000e+01 -4.450000e+00  6.000000e+00
      vertex  4.556612e+01 -5.333883e+00  6.000000e+00
      vertex  4.520000e+01 -4.450000e+00  6.000000e+00
    endloop
  endfacet
  facet normal  0.000000e+00  0.000000e+00 -1.000000e+00
    outer loop
      vertex  4.770000e+01 -4.450000e+00  6.000000e+00
      vertex  4.520000e+01 -4.450000e+00  6.000000e+00
      vertex  4.733389e+01 -3.566117e+00  6.000000e+00
    endloop
  endfacet
  facet normal  -0.000000e+00  0.000000e+00 -1.000000e+00
    outer loop
      vertex  4.733389e+01 -3.566117e+00  6.000000e+00
      vertex  4.520000e+01 -4.450000e+00  6.000000e+00
      vertex  4.556612e+01 -3.566117e+00  6.000000e+00
    endloop
  endfacet
  facet normal  0.000000e+00  0.000000e+00 -1.000000e+00
    outer loop
      vertex  4.733389e+01 -3.566117e+00  6.000000e+00
      vertex  4.556612e+01 -3.566117e+00  6.000000e+00
      vertex  4.645000e+01 -3.200000e+00  6.000000e+00
    endloop
  endfacet
  facet normal  9.238799e-01  3.826826e-01  -0.000000e+00
    outer loop
      vertex  4.625000e+01  7.625000e+00  1.200000e+01
      vertex  4.625000e+01  7.625000e+00  1.000000e+01
      vertex  4.588388e+01  8.508883e+00  1.200000e+01
    endloop
  endfacet
  facet normal  9.238799e-01  3.826826e-01  0.000000e+00
    outer loop
      vertex  4.588388e+01  8.508883e+00  1.200000e+01
      vertex  4.625000e+01  7.625000e+00  1.000000e+01
      vertex  4.588388e+01  8.508883e+00  1.000000e+01
    endloop
  endfacet
  facet normal  3.826831e-01  9.238797e-01  -0.000000e+00
    outer loop
      vertex  4.588388e+01  8.508883e+00  1.200000e+01
      vertex  4.588388e+01  8.508883e+00  1.000000e+01
      vertex  4.500000e+01  8.875000e+00  1.200000e+01
    endloop
  endfacet
  facet normal  3.826831e-01  9.238797e-01  0.000000e+00
    outer loop
      vertex  4.500000e+01  8.875000e+00  1.200000e+01
      vertex  4.588388e+01  8.508883e+00  1.000000e+01
      vertex  4.500000e+01  8.875000e+00  1.000000e+01
    endloop
  endfacet
  facet normal -3.826831e-01  9.238797e-01  0.000000e+00
    outer loop
      vertex  4.500000e+01  8.875000e+00  1.200000e+01
      vertex  4.500000e+01  8.875000e+00  1.000000e+01
      vertex  4.411612e+01  8.508883e+00  1.200000e+01
    endloop
  endfacet
  facet normal -3.826831e-01  9.238797e-01  0.000000e+00
    outer loop
      vertex  4.411612e+01  8.508883e+00  1.200000e+01
      vertex  4.500000e+01  8.875000e+00  1.000000e+01
      vertex  4.411612e+01  8.508883e+00  1.000000e+01
    endloop
  endfacet
  facet normal -9.238799e-01  3.826826e-01  0.000000e+00
    outer loop
      vertex  4.411612e+01  8.508883e+00  1.200000e+01
      vertex  4.411612e+01  8.508883e+00  1.000000e+01
      vertex  4.375000e+01  7.625000e+00  1.200000e+01
    endloop
  endfacet
  facet normal -9.238799e-01  3.826826e-01  0.000000e+00
    outer loop
      vertex  4.375000e+01  7.625000e+00  1.200000e+01
      vertex  4.411612e+01  8.508883e+00  1.000000e+01
      vertex  4.375000e+01  7.625000e+00  1.000000e+01
    endloop
  endfacet
  facet normal -9.238799e-01 -3.826826e-01  0.000000e+00
    outer loop
      vertex  4.375000e+01  7.625000e+00  1.200000e+01
      vertex  4.375000e+01  7.625000e+00  1.000000e+01
      vertex  4.411612e+01  6.741117e+00  1.200000e+01
    endloop
  endfacet
  facet normal -9.238799e-01 -3.826826e-01  -0.000000e+00
    outer loop
      vertex  4.411612e+01  6.741117e+00  1.200000e+01
      vertex  4.375000e+01  7.625000e+00  1.000000e+01
      vertex  4.411612e+01  6.741117e+00  1.000000e+01
    endloop
  endfacet
  facet normal -3.826831e-01 -9.238797e-01  0.000000e+00
    outer loop
      vertex  4.411612e+01  6.741117e+00  1.200000e+01
      vertex  4.411612e+01  6.741117e+00  1.000000e+01
      vertex  4.500000e+01  6.375000e+00  1.200000e+01
    endloop
  endfacet
  facet normal -3.826831e-01 -9.238797e-01  -0.000000e+00
    outer loop
      vertex  4.500000e+01  6.375000e+00  1.200000e+01
      vertex  4.411612e+01  6.741117e+00  1.000000e+01
      vertex  4.500000e+01  6.375000e+00  1.000000e+01
    endloop
  endfacet
  facet normal  3.826831e-01 -9.238797e-01  0.000000e+00
    outer loop
      vertex  4.500000e+01  6.375000e+00  1.200000e+01
      vertex  4.500000e+01  6.375000e+00  1.000000e+01
      vertex  4.588388e+01  6.741117e+00  1.200000e+01
    endloop
  endfacet
  facet normal  3.826831e-01 -9.238797e-01  0.000000e+00
    outer loop
      vertex  4.588388e+01  6.741117e+00  1.200000e+01
      vertex  4.500000e+01  6.375000e+00  1.000000e+01
      vertex  4.588388e+01  6.741117e+00  1.000000e+01
    endloop
  endfacet
  facet normal  9.238799e-01 -3.826826e-01  0.000000e+00
    outer loop
      vertex  4.588388e+01  6.741117e+00  1.200000e+01
      vertex  4.588388e+01  6.741117e+00  1.000000e+01
      vertex  4.625000e+01  7.625000e+00  1.200000e+01
    endloop
  endfacet
  facet normal  9.238799e-01 -3.826826e-01  0.000000e+00
    outer loop
      vertex  4.625000e+01  7.625000e+00  1.200000e+01
      vertex  4.588388e+01  6.741117e+00  1.000000e+01
      vertex  4.625000e+01  7.625000e+00  1.000000e+01
    endloop
  endfacet
  facet normal  0.000000e+00  0.000000e+00  1.000000e+00
    outer loop
      vertex  4.411612e+01  8.508883e+00  1.200000e+01
      vertex  4.588388e+01  8.508883e+00  1.200000e+01
      vertex  4.500000e+01  8.875000e+00  1.200000e+01
    endloop
  endfacet
  facet normal  -0.000000e+00  0.000000e+00  1.000000e+00
    outer loop
      vertex  4.588388e+01  8.508883e+00  1.200000e+01
      vertex  4.411612e+01  8.508883e+00  1.200000e+01
      vertex  4.625000e+01  7.625000e+00  1.200000e+01
    endloop
  endfacet
  facet normal  0.000000e+00  0.000000e+00  1.000000e+00
    outer loop
      vertex  4.625000e+01  7.625000e+00  1.200000e+01
      vertex  4.411612e+01  8.508883e+00  1.200000e+01
      vertex  4.375000e+01  7.625000e+00  1.200000e+01
    endloop
  endfacet
  facet normal  -0.000000e+00  0.000000e+00  1.000000e+00
    outer loop
      vertex  4.625000e+01  7.625000e+00  1.200000e+01
      vertex  4.375000e+01  7.625000e+00  1.200000e+01
      vertex  4.588388e+01  6.741117e+00  1.200000e+01
    endloop
  endfacet
  facet normal  0.000000e+00  0.000000e+00  1.000000e+00
    outer loop
      vertex  4.588388e+01  6.741117e+00  1.200000e+01
      vertex  4.375000e+01  7.625000e+00  1.200000e+01
      vertex  4.411612e+01  6.741117e+00  1.200000e+01
    endloop
  endfacet
  facet normal  -0.000000e+00  0.000000e+00  1.000000e+00
    outer loop
      vertex  4.588388e+01  6.741117e+00  1.200000e+01
      vertex  4.411612e+01  6.741117e+00  1.200000e+01
      vertex  4.500000e+01  6.375000e+00  1.200000e+01
    endloop
  endfacet
  facet normal  9.238799e-01 -3.826826e-01  0.000000e+00
    outer loop
      vertex  4.625000e+01 -7.625000e+00  1.000000e+01
      vertex  4.625000e+01 -7.625000e+00  1.200000e+01
      vertex  4.588388e+01 -8.508883e+00  1.000000e+01
    endloop
  endfacet
  facet normal  9.238799e-01 -3.826826e-01  0.000000e+00
    outer loop
      vertex  4.588388e+01 -8.508883e+00  1.000000e+01
      vertex  4.625000e+01 -7.625000e+00  1.200000e+01
      vertex  4.588388e+01 -8.508883e+00  1.200000e+01
    endloop
  endfacet
  facet normal  3.826831e-01 -9.238797e-01  0.000000e+00
    outer loop
      vertex  4.588388e+01 -8.508883e+00  1.000000e+01
      vertex  4.588388e+01 -8.508883e+00  1.200000e+01
      vertex  4.500000e+01 -8.875000e+00  1.000000e+01
    endloop
  endfacet
  facet normal  3.826831e-01 -9.238797e-01  0.000000e+00
    outer loop
      vertex  4.500000e+01 -8.875000e+00  1.000000e+01
      vertex  4.588388e+01 -8.508883e+00  1.200000e+01
      vertex  4.500000e+01 -8.875000e+00  1.200000e+01
    endloop
  endfacet
  facet normal -3.826831e-01 -9.238797e-01  -0.000000e+00
    outer loop
      vertex  4.500000e+01 -8.875000e+00  1.000000e+01
      vertex  4.500000e+01 -8.875000e+00  1.200000e+01
      vertex  4.411612e+01 -8.508883e+00  1.000000e+01
    endloop
  endfacet
  facet normal -3.826831e-01 -9.238797e-01  0.000000e+00
    outer loop
      vertex  4.411612e+01 -8.508883e+00  1.000000e+01
      vertex  4.500000e+01 -8.875000e+00  1.200000e+01
      vertex  4.411612e+01 -8.508883e+00  1.200000e+01
    endloop
  endfacet
  facet normal -9.238799e-01 -3.826826e-01  -0.000000e+00
    outer loop
      vertex  4.411612e+01 -8.508883e+00  1.000000e+01
      vertex  4.411612e+01 -8.508883e+00  1.200000e+01
      vertex  4.375000e+01 -7.625000e+00  1.000000e+01
    endloop
  endfacet
  facet normal -9.238799e-01 -3.826826e-01  0.000000e+00
    outer loop
      vertex  4.375000e+01 -7.625000e+00  1.000000e+01
      vertex  4.411612e+01 -8.508883e+00  1.200000e+01
      vertex  4.375000e+01 -7.625000e+00  1.200000e+01
    endloop
  endfacet
  facet normal -9.238799e-01  3.826826e-01  0.000000e+00
    outer loop
      vertex  4.375000e+01 -7.625000e+00  1.000000e+01
      vertex  4.375000e+01 -7.625000e+00  1.200000e+01
      vertex  4.411612e+01 -6.741117e+00  1.000000e+01
    endloop
  endfacet
  facet normal -9.238799e-01  3.826826e-01  0.000000e+00
    outer loop
      vertex  4.411612e+01 -6.741117e+00  1.000000e+01
      vertex  4.375000e+01 -7.625000e+00  1.200000e+01
      vertex  4.411612e+01 -6.741117e+00  1.200000e+01
    endloop
  endfacet
  facet normal -3.826831e-01  9.238797e-01  0.000000e+00
    outer loop
      vertex  4.411612e+01 -6.741117e+00  1.000000e+01
      vertex  4.411612e+01 -6.741117e+00  1.200000e+01
      vertex  4.500000e+01 -6.375000e+00  1.000000e+01
    endloop
  endfacet
  facet normal -3.826831e-01  9.238797e-01  0.000000e+00
    outer loop
      vertex  4.500000e+01 -6.375000e+00  1.000000e+01
      vertex  4.411612e+01 -6.741117e+00  1.200000e+01
      vertex  4.500000e+01 -6.375000e+00  1.200000e+01
    endloop
  endfacet
  facet normal  3.826831e-01  9.238797e-01  0.000000e+00
    outer loop
      vertex  4.500000e+01 -6.375000e+00  1.000000e+01
      vertex  4.500000e+01 -6.375000e+00  1.200000e+01
      vertex  4.588388e+01 -6.741117e+00  1.000000e+01
    endloop
  endfacet
  facet normal  3.826831e-01  9.238797e-01  -0.000000e+00
    outer loop
      vertex  4.588388e+01 -6.741117e+00  1.000000e+01
      vertex  4.500000e+01 -6.375000e+00  1.200000e+01
      vertex  4.588388e+01 -6.741117e+00  1.200000e+01
    endloop
  endfacet
  facet normal  9.238799e-01  3.826826e-01  0.000000e+00
    outer loop
      vertex  4.588388e+01 -6.741117e+00  1.000000e+01
      vertex  4.588388e+01 -6.741117e+00  1.200000e+01
      vertex  4.625000e+01 -7.625000e+00  1.000000e+01
    endloop
  endfacet
  facet normal  9.238799e-01  3.826826e-01  -0.000000e+00
    outer loop
      vertex  4.625000e+01 -7.625000e+00  1.000000e+01
      vertex  4.588388e+01 -6.741117e+00  1.200000e+01
      vertex  4.625000e+01 -7.625000e+00  1.200000e+01
    endloop
  endfacet
  facet normal  0.000000e+00  0.000000e+00  1.000000e+00
    outer loop
      vertex  4.411612e+01 -6.741117e+00  1.200000e+01
      vertex  4.588388e+01 -6.741117e+00  1.200000e+01
      vertex  4.500000e+01 -6.375000e+00  1.200000e+01
    endloop
  endfacet
  facet normal  -0.000000e+00  0.000000e+00  1.000000e+00
    outer loop
      vertex  4.588388e+01 -6.741117e+00  1.200000e+01
      vertex  4.411612e+01 -6.741117e+00  1.200000e+01
      vertex  4.625000e+01 -7.625000e+00  1.200000e+01
    endloop
  endfacet
  facet normal  0.000000e+00  0.000000e+00  1.000000e+00
    outer loop
      vertex  4.625000e+01 -7.625000e+00  1.200000e+01
      vertex  4.411612e+01 -6.741117e+00  1.200000e+01
      vertex  4.375000e+01 -7.625000e+00  1.200000e+01
    endloop
  endfacet
  facet normal  -0.000000e+00  0.000000e+00  1.000000e+00
    outer loop
      vertex  4.625000e+01 -7.625000e+00  1.200000e+01
      vertex  4.375000e+01 -7.625000e+00  1.200000e+01
      vertex  4.588388e+01 -8.508883e+00  1.200000e+01
    endloop
  endfacet
  facet normal  0.000000e+00  0.000000e+00  1.000000e+00
    outer loop
      vertex  4.588388e+01 -8.508883e+00  1.200000e+01
      vertex  4.375000e+01 -7.625000e+00  1.200000e+01
      vertex  4.411612e+01 -8.508883e+00  1.200000e+01
    endloop
  endfacet
  facet normal  -0.000000e+00  0.000000e+00  1.000000e+00
    outer loop
      vertex  4.588388e+01 -8.508883e+00  1.200000e+01
      vertex  4.411612e+01 -8.508883e+00  1.200000e+01
      vertex  4.500000e+01 -8.875000e+00  1.200000e+01
    endloop
  endfacet
  facet normal -1.000000e+00  0.000000e+00  0.000000e+00
    outer loop
      vertex  4.400000e+01 -6.500000e+00  6.000000e+00
      vertex  4.400000e+01 -1.100000e+01  6.000000e+00
      vertex  4.400000e+01 -6.500000e+00  8.000000e+00
    endloop
  endfacet
  facet normal -1.000000e+00  -0.000000e+00  0.000000e+00
    outer loop
      vertex  4.400000e+01 -6.500000e+00  8.000000e+00
      vertex  4.400000e+01 -1.100000e+01  6.000000e+00
      vertex  4.400000e+01 -9.000000e+00  8.000000e+00
    endloop
  endfacet
  facet normal -1.000000e+00  0.000000e+00  0.000000e+00
    outer loop
      vertex  4.400000e+01 -1.100000e+01  6.000000e+00
      vertex  4.400000e+01 -1.100000e+01  1.000000e+01
      vertex  4.400000e+01 -9.000000e+00  8.000000e+00
    endloop
  endfacet
  facet normal -1.000000e+00  0.000000e+00  0.000000e+00
    outer loop
      vertex  4.400000e+01 -9.000000e+00  8.000000e+00
      vertex  4.400000e+01 -1.100000e+01  1.000000e+01
      vertex  4.400000e+01 -9.000000e+00  1.000000e+01
    endloop
  endfacet
  facet normal  1.000000e+00  0.000000e+00  0.000000e+00
    outer loop
      vertex  5.500000e+01 -1.100000e+01  6.000000e+00
      vertex  5.500000e+01 -6.500000e+00  6.000000e+00
      vertex  5.500000e+01 -1.100000e+01  1.000000e+01
    endloop
  endfacet
  facet normal  1.000000e+00  0.000000e+00  0.000000e+00
    outer loop
      vertex  5.500000e+01 -1.100000e+01  1.000000e+01
      vertex  5.500000e+01 -6.500000e+00  6.000000e+00
      vertex  5.500000e+01 -6.500000e+00  8.000000e+00
    endloop
  endfacet
  facet normal  1.000000e+00  0.000000e+00  -0.000000e+00
    outer loop
      vertex  5.500000e+01 -1.100000e+01  1.000000e+01
      vertex  5.500000e+01 -6.500000e+00  8.000000e+00
      vertex  5.500000e+01  1.100000e+01  1.000000e+01
    endloop
  endfacet
  facet normal  1.000000e+00  0.000000e+00  0.000000e+00
    outer loop
      vertex  5.500000e+01  1.100000e+01  1.000000e+01
      vertex  5.500000e+01 -6.500000e+00  8.000000e+00
      vertex  5.500000e+01  6.500000e+00  8.000000e+00
    endloop
  endfacet
  facet normal  1.000000e+00  -0.000000e+00  0.000000e+00
    outer loop
      vertex  5.500000e+01  1.100000e+01  1.000000e+01
      vertex  5.500000e+01  6.500000e+00  8.000000e+00
      vertex  5.500000e+01  1.100000e+01  6.000000e+00
    endloop
  endfacet
  facet normal  1.000000e+00  0.000000e+00  0.000000e+00
    outer loop
      vertex  5.500000e+01  1.100000e+01  6.000000e+00
      vertex  5.500000e+01  6.500000e+00  8.000000e+00
      vertex  5.500000e+01  6.500000e+00  6.000000e+00
    endloop
  endfacet
  facet normal  0.000000e+00 -1.000000e+00  0.000000e+00
    outer loop
      vertex  4.400000e+01 -1.100000e+01  6.000000e+00
      vertex  5.500000e+01 -1.100000e+01  6.000000e+00
      vertex  4.400000e+01 -1.100000e+01  1.000000e+01
    endloop
  endfacet
  facet normal  0.000000e+00 -1.000000e+00  0.000000e+00
    outer loop
      vertex  4.400000e+01 -1.100000e+01  1.000000e+01
      vertex  5.500000e+01 -1.100000e+01  6.000000e+00
      vertex  5.500000e+01 -1.100000e+01  1.000000e+01
    endloop
  endfacet
  facet normal  -0.000000e+00  0.000000e+00 -1.000000e+00
    outer loop
      vertex  4.400000e+01 -6.500000e+00  6.000000e+00
      vertex  5.500000e+01 -6.500000e+00  6.000000e+00
      vertex  4.400000e+01 -1.100000e+01  6.000000e+00
    endloop
  endfacet
  facet normal  0.000000e+00  0.000000e+00 -1.000000e+00
    outer loop
      vertex  4.400000e+01 -1.100000e+01  6.000000e+00
      vertex  5.500000e+01 -6.500000e+00  6.000000e+00
      vertex  5.500000e+01 -1.100000e+01  6.000000e+00
    endloop
  endfacet
  facet normal  0.000000e+00 -1.000000e+00  0.000000e+00
    outer loop
      vertex  3.520000e+01 -9.000000e+00  1.000000e+01
      vertex  3.520000e+01 -9.000000e+00  8.000000e+00
      vertex  4.400000e+01 -9.000000e+00  1.000000e+01
    endloop
  endfacet
  facet normal  0.000000e+00 -1.000000e+00  -0.000000e+00
    outer loop
      vertex  4.400000e+01 -9.000000e+00  1.000000e+01
      vertex  3.520000e+01 -9.000000e+00  8.000000e+00
      vertex  4.400000e+01 -9.000000e+00  8.000000e+00
    endloop
  endfacet
  facet normal  0.000000e+00  1.000000e+00  0.000000e+00
    outer loop
      vertex  5.500000e+01 -6.500000e+00  6.000000e+00
      vertex  4.400000e+01 -6.500000e+00  6.000000e+00
      vertex  5.500000e+01 -6.500000e+00  8.000000e+00
    endloop
  endfacet
  facet normal  0.000000e+00  1.000000e+00  0.000000e+00
    outer loop
      vertex  5.500000e+01 -6.500000e+00  8.000000e+00
      vertex  4.400000e+01 -6.500000e+00  6.000000e+00
      vertex  4.400000e+01 -6.500000e+00  8.000000e+00
    endloop
  endfacet
  facet normal  -0.000000e+00  0.000000e+00 -1.000000e+00
    outer loop
      vertex  4.400000e+01  1.100000e+01  6.000000e+00
      vertex  5.500000e+01  1.100000e+01  6.000000e+00
      vertex  4.400000e+01  6.500000e+00  6.000000e+00
    endloop
  endfacet
  facet normal  0.000000e+00  0.000000e+00 -1.000000e+00
    outer loop
      vertex  4.400000e+01  6.500000e+00  6.000000e+00
      vertex  5.500000e+01  1.100000e+01  6.000000e+00
      vertex  5.500000e+01  6.500000e+00  6.000000e+00
    endloop
  endfacet
  facet normal  0.000000e+00  1.000000e+00  0.000000e+00
    outer loop
      vertex  4.400000e+01  1.100000e+01  6.000000e+00
      vertex  4.400000e+01  1.100000e+01  1.000000e+01
      vertex  5.500000e+01  1.100000e+01  6.000000e+00
    endloop
  endfacet
  facet normal  0.000000e+00  1.000000e+00  -0.000000e+00
    outer loop
      vertex  5.500000e+01  1.100000e+01  6.000000e+00
      vertex  4.400000e+01  1.100000e+01  1.000000e+01
      vertex  5.500000e+01  1.100000e+01  1.000000e+01
    endloop
  endfacet
  facet normal -1.000000e+00  0.000000e+00  0.000000e+00
    outer loop
      vertex  4.400000e+01  1.100000e+01  1.000000e+01
      vertex  4.400000e+01  1.100000e+01  6.000000e+00
      vertex  4.400000e+01  9.000000e+00  1.000000e+01
    endloop
  endfacet
  facet normal -1.000000e+00  0.000000e+00  0.000000e+00
    outer loop
      vertex  4.400000e+01  9.000000e+00  1.000000e+01
      vertex  4.400000e+01  1.100000e+01  6.000000e+00
      vertex  4.400000e+01  9.000000e+00  8.000000e+00
    endloop
  endfacet
  facet normal -1.000000e+00  0.000000e+00  0.000000e+00
    outer loop
      vertex  4.400000e+01  1.100000e+01  6.000000e+00
      vertex  4.400000e+01  6.500000e+00  6.000000e+00
      vertex  4.400000e+01  9.000000e+00  8.000000e+00
    endloop
  endfacet
  facet normal -1.000000e+00  -0.000000e+00  0.000000e+00
    outer loop
      vertex  4.400000e+01  9.000000e+00  8.000000e+00
      vertex  4.400000e+01  6.500000e+00  6.000000e+00
      vertex  4.400000e+01  6.500000e+00  8.000000e+00
    endloop
  endfacet
  facet normal  0.000000e+00 -1.000000e+00  -0.000000e+00
    outer loop
      vertex  5.500000e+01  6.500000e+00  6.000000e+00
      vertex  5.500000e+01  6.500000e+00  8.000000e+00
      vertex  4.400000e+01  6.500000e+00  6.000000e+00
    endloop
  endfacet
  facet normal  0.000000e+00 -1.000000e+00  0.000000e+00
    outer loop
      vertex  4.400000e+01  6.500000e+00  6.000000e+00
      vertex  5.500000e+01  6.500000e+00  8.000000e+00
      vertex  4.400000e+01  6.500000e+00  8.000000e+00
    endloop
  endfacet
  facet normal  0.000000e+00  1.000000e+00  0.000000e+00
    outer loop
      vertex  3.520000e+01  9.000000e+00  8.000000e+00
      vertex  3.520000e+01  9.000000e+00  1.000000e+01
      vertex  4.400000e+01  9.000000e+00  8.000000e+00
    endloop
  endfacet
  facet normal  0.000000e+00  1.000000e+00  -0.000000e+00
    outer loop
      vertex  4.400000e+01  9.000000e+00  8.000000e+00
      vertex  3.520000e+01  9.000000e+00  1.000000e+01
      vertex  4.400000e+01  9.000000e+00  1.000000e+01
    endloop
  endfacet
  facet normal  1.000000e+00  0.000000e+00  0.000000e+00
    outer loop
      vertex  4.400000e+01 -5.000000e+00  8.000000e+00
      vertex  4.400000e+01 -5.000000e+00  6.000000e+00
      vertex  4.400000e+01  5.000000e+00  8.000000e+00
    endloop
  endfacet
  facet normal  1.000000e+00  0.000000e+00  0.000000e+00
    outer loop
      vertex  4.400000e+01  5.000000e+00  8.000000e+00
      vertex  4.400000e+01 -5.000000e+00  6.000000e+00
      vertex  4.400000e+01  5.000000e+00  6.000000e+00
    endloop
  endfacet
  facet normal  0.000000e+00 -1.000000e+00  -0.000000e+00
    outer loop
      vertex  4.400000e+01 -5.000000e+00  6.000000e+00
      vertex  4.400000e+01 -5.000000e+00  8.000000e+00
      vertex  3.700000e+01 -5.000000e+00  6.000000e+00
    endloop
  endfacet
  facet normal  0.000000e+00 -1.000000e+00  0.000000e+00
    outer loop
      vertex  3.700000e+01 -5.000000e+00  6.000000e+00
      vertex  4.400000e+01 -5.000000e+00  8.000000e+00
      vertex  3.700000e+01 -5.000000e+00  8.000000e+00
    endloop
  endfacet
  facet normal  0.000000e+00  1.000000e+00  0.000000e+00
    outer loop
      vertex  3.700000e+01  5.000000e+00  6.000000e+00
      vertex  3.700000e+01  5.000000e+00  8.000000e+00
      vertex  4.400000e+01  5.000000e+00  6.000000e+00
    endloop
  endfacet
  facet normal  0.000000e+00  1.000000e+00  -0.000000e+00
    outer loop
      vertex  4.400000e+01  5.000000e+00  6.000000e+00
      vertex  3.700000e+01  5.000000e+00  8.000000e+00
      vertex  4.400000e+01  5.000000e+00  8.000000e+00
    endloop
  endfacet
  facet normal -1.000000e+00  0.000000e+00  0.000000e+00
    outer loop
      vertex  3.700000e+01 -5.000000e+00  6.000000e+00
      vertex  3.700000e+01 -5.000000e+00  8.000000e+00
      vertex  3.700000e+01  5.000000e+00  6.000000e+00
    endloop
  endfacet
  facet normal -1.000000e+00  0.000000e+00  0.000000e+00
    outer loop
      vertex  3.700000e+01  5.000000e+00  6.000000e+00
      vertex  3.700000e+01 -5.000000e+00  8.000000e+00
      vertex  3.700000e+01  5.000000e+00  8.000000e+00
    endloop
  endfacet
  facet normal  -0.000000e+00  0.000000e+00 -1.000000e+00
    outer loop
      vertex  3.700000e+01  5.000000e+00  6.000000e+00
      vertex  4.400000e+01  5.000000e+00  6.000000e+00
      vertex  3.700000e+01 -5.000000e+00  6.000000e+00
    endloop
  endfacet
  facet normal  0.000000e+00  0.000000e+00 -1.000000e+00
    outer loop
      vertex  3.700000e+01 -5.000000e+00  6.000000e+00
      vertex  4.400000e+01  5.000000e+00  6.000000e+00
      vertex  4.400000e+01 -5.000000e+00  6.000000e+00
    endloop
  endfacet
  facet normal  5.877852e-01  8.090170e-01  -0.000000e+00
    outer loop
      vertex  2.557295e+01 -2.853169e+00  1.000000e+01
      vertex  2.407295e+01 -1.763356e+00  8.000000e+00
      vertex  2.407295e+01 -1.763356e+00  1.000000e+01
    endloop
  endfacet
  facet normal  9.510566e-01  3.090167e-01  0.000000e+00
    outer loop
      vertex  2.407295e+01 -1.763356e+00  1.000000e+01
      vertex  2.407295e+01 -1.763356e+00  8.000000e+00
      vertex  2.350000e+01 -3.673940e-16  8.000000e+00
    endloop
  endfacet
  facet normal  9.510566e-01  3.090167e-01  -0.000000e+00
    outer loop
      vertex  2.407295e+01 -1.763356e+00  1.000000e+01
      vertex  2.350000e+01 -3.673940e-16  8.000000e+00
      vertex  2.350000e+01 -3.673940e-16  1.000000e+01
    endloop
  endfacet
  facet normal  5.877852e-01  8.090170e-01  0.000000e+00
    outer loop
      vertex  2.407295e+01 -1.763356e+00  8.000000e+00
      vertex  2.557295e+01 -2.853169e+00  1.000000e+01
      vertex  2.557295e+01 -2.853169e+00  8.000000e+00
    endloop
  endfacet
  facet normal  0.000000e+00  9.999999e-01  0.000000e+00
    outer loop
      vertex  2.557295e+01 -2.853169e+00  8.000000e+00
      vertex  2.557295e+01 -2.853169e+00  1.000000e+01
      vertex  2.742705e+01 -2.853169e+00  1.000000e+01
    endloop
  endfacet
  facet normal  0.000000e+00  9.999999e-01  0.000000e+00
    outer loop
      vertex  2.557295e+01 -2.853169e+00  8.000000e+00
      vertex  2.742705e+01 -2.853169e+00  1.000000e+01
      vertex  2.742705e+01 -2.853169e+00  8.000000e+00
    endloop
  endfacet
  facet normal -5.877852e-01  8.090170e-01  0.000000e+00
    outer loop
      vertex  2.742705e+01 -2.853169e+00  8.000000e+00
      vertex  2.742705e+01 -2.853169e+00  1.000000e+01
      vertex  2.892705e+01 -1.763356e+00  1.000000e+01
    endloop
  endfacet
  facet normal -5.877852e-01  8.090170e-01  0.000000e+00
    outer loop
      vertex  2.742705e+01 -2.853169e+00  8.000000e+00
      vertex  2.892705e+01 -1.763356e+00  1.000000e+01
      vertex  2.892705e+01 -1.763356e+00  8.000000e+00
    endloop
  endfacet
  facet normal -9.510566e-01  3.090167e-01  0.000000e+00
    outer loop
      vertex  2.892705e+01 -1.763356e+00  8.000000e+00
      vertex  2.892705e+01 -1.763356e+00  1.000000e+01
      vertex  2.950000e+01  0.000000e+00  1.000000e+01
    endloop
  endfacet
  facet normal -9.510566e-01  3.090167e-01  0.000000e+00
    outer loop
      vertex  2.892705e+01 -1.763356e+00  8.000000e+00
      vertex  2.950000e+01  0.000000e+00  1.000000e+01
      vertex  2.950000e+01  0.000000e+00  8.000000e+00
    endloop
  endfacet
  facet normal -5.877852e-01 -8.090170e-01  0.000000e+00
    outer loop
      vertex  2.742705e+01  2.853169e+00  1.000000e+01
      vertex  2.892705e+01  1.763356e+00  8.000000e+00
      vertex  2.892705e+01  1.763356e+00  1.000000e+01
    endloop
  endfacet
  facet normal -9.510566e-01 -3.090167e-01  -0.000000e+00
    outer loop
      vertex  2.892705e+01  1.763356e+00  1.000000e+01
      vertex  2.892705e+01  1.763356e+00  8.000000e+00
      vertex  2.950000e+01  0.000000e+00  8.000000e+00
    endloop
  endfacet
  facet normal -9.510566e-01 -3.090167e-01  0.000000e+00
    outer loop
      vertex  2.892705e+01  1.763356e+00  1.000000e+01
      vertex  2.950000e+01  0.000000e+00  8.000000e+00
      vertex  2.950000e+01  0.000000e+00  1.000000e+01
    endloop
  endfacet
  facet normal -5.877852e-01 -8.090170e-01  -0.000000e+00
    outer loop
      vertex  2.892705e+01  1.763356e+00  8.000000e+00
      vertex  2.742705e+01  2.853169e+00  1.000000e+01
      vertex  2.742705e+01  2.853169e+00  8.000000e+00
    endloop
  endfacet
  facet normal  0.000000e+00 -9.999999e-01  0.000000e+00
    outer loop
      vertex  2.742705e+01  2.853169e+00  8.000000e+00
      vertex  2.742705e+01  2.853169e+00  1.000000e+01
      vertex  2.557295e+01  2.853169e+00  1.000000e+01
    endloop
  endfacet
  facet normal  0.000000e+00 -9.999999e-01  0.000000e+00
    outer loop
      vertex  2.742705e+01  2.853169e+00  8.000000e+00
      vertex  2.557295e+01  2.853169e+00  1.000000e+01
      vertex  2.557295e+01  2.853169e+00  8.000000e+00
    endloop
  endfacet
  facet normal  5.877852e-01 -8.090170e-01  0.000000e+00
    outer loop
      vertex  2.557295e+01  2.853169e+00  8.000000e+00
      vertex  2.557295e+01  2.853169e+00  1.000000e+01
      vertex  2.407295e+01  1.763356e+00  1.000000e+01
    endloop
  endfacet
  facet normal  5.877852e-01 -8.090170e-01  0.000000e+00
    outer loop
      vertex  2.557295e+01  2.853169e+00  8.000000e+00
      vertex  2.407295e+01  1.763356e+00  1.000000e+01
      vertex  2.407295e+01  1.763356e+00  8.000000e+00
    endloop
  endfacet
  facet normal  9.510566e-01 -3.090167e-01  0.000000e+00
    outer loop
      vertex  2.407295e+01  1.763356e+00  8.000000e+00
      vertex  2.407295e+01  1.763356e+00  1.000000e+01
      vertex  2.350000e+01 -3.673940e-16  1.000000e+01
    endloop
  endfacet
  facet normal  9.510566e-01 -3.090167e-01  0.000000e+00
    outer loop
      vertex  2.407295e+01  1.763356e+00  8.000000e+00
      vertex  2.350000e+01 -3.673940e-16  1.000000e+01
      vertex  2.350000e+01 -3.673940e-16  8.000000e+00
    endloop
  endfacet
  facet normal -1.000000e+00  0.000000e+00  0.000000e+00
    outer loop
      vertex  0.000000e+00 -9.000000e+00  8.000000e+00
      vertex  0.000000e+00 -9.000000e+00  1.000000e+01
      vertex  0.000000e+00 -4.000000e+00  8.000000e+00
    endloop
  endfacet
  facet normal -1.000000e+00  0.000000e+00  0.000000e+00
    outer loop
      vertex  0.000000e+00 -4.000000e+00  8.000000e+00
      vertex  0.000000e+00 -9.000000e+00  1.000000e+01
      vertex  0.000000e+00 -4.000000e+00  1.000000e+01
    endloop
  endfacet
  facet normal -1.000000e+00  0.000000e+00  0.000000e+00
    outer loop
      vertex  0.000000e+00  4.000000e+00  8.000000e+00
      vertex  0.000000e+00  4.000000e+00  1.000000e+01
      vertex  0.000000e+00  9.000000e+00  8.000000e+00
    endloop
  endfacet
  facet normal -1.000000e+00  0.000000e+00  0.000000e+00
    outer loop
      vertex  0.000000e+00  9.000000e+00  8.000000e+00
      vertex  0.000000e+00  4.000000e+00  1.000000e+01
      vertex  0.000000e+00  9.000000e+00  1.000000e+01
    endloop
  endfacet
  facet normal -1.000000e+00  0.000000e+00  0.000000e+00
    outer loop
      vertex  9.000000e+00 -4.000000e+00  8.000000e+00
      vertex  9.000000e+00 -4.000000e+00  1.000000e+01
      vertex  9.000000e+00  4.000000e+00  8.000000e+00
    endloop
  endfacet
  facet normal -1.000000e+00  0.000000e+00  0.000000e+00
    outer loop
      vertex  9.000000e+00  4.000000e+00  8.000000e+00
      vertex  9.000000e+00 -4.000000e+00  1.000000e+01
      vertex  9.000000e+00  4.000000e+00  1.000000e+01
    endloop
  endfacet
  facet normal  0.000000e+00 -1.000000e+00  0.000000e+00
    outer loop
      vertex  0.000000e+00  4.000000e+00  8.000000e+00
      vertex  9.000000e+00  4.000000e+00  8.000000e+00
      vertex  0.000000e+00  4.000000e+00  1.000000e+01
    endloop
  endfacet
  facet normal  0.000000e+00 -1.000000e+00  0.000000e+00
    outer loop
      vertex  0.000000e+00  4.000000e+00  1.000000e+01
      vertex  9.000000e+00  4.000000e+00  8.000000e+00
      vertex  9.000000e+00  4.000000e+00  1.000000e+01
    endloop
  endfacet
  facet normal  0.000000e+00  1.000000e+00  0.000000e+00
    outer loop
      vertex  0.000000e+00 -4.000000e+00  1.000000e+01
      vertex  9.000000e+00 -4.000000e+00  1.000000e+01
      vertex  0.000000e+00 -4.000000e+00  8.000000e+00
    endloop
  endfacet
  facet normal  0.000000e+00  1.000000e+00  0.000000e+00
    outer loop
      vertex  0.000000e+00 -4.000000e+00  8.000000e+00
      vertex  9.000000e+00 -4.000000e+00  1.000000e+01
      vertex  9.000000e+00 -4.000000e+00  8.000000e+00
    endloop
  endfacet
  facet normal  0.000000e+00  1.000000e+00  0.000000e+00
    outer loop
      vertex  0.000000e+00  9.000000e+00  8.000000e+00
      vertex  0.000000e+00  9.000000e+00  1.000000e+01
      vertex  8.800000e+00  9.000000e+00  8.000000e+00
    endloop
  endfacet
  facet normal  0.000000e+00  1.000000e+00  -0.000000e+00
    outer loop
      vertex  8.800000e+00  9.000000e+00  8.000000e+00
      vertex  0.000000e+00  9.000000e+00  1.000000e+01
      vertex  8.800000e+00  9.000000e+00  1.000000e+01
    endloop
  endfacet
  facet normal  0.000000e+00 -1.000000e+00  0.000000e+00
    outer loop
      vertex  0.000000e+00 -9.000000e+00  1.000000e+01
      vertex  0.000000e+00 -9.000000e+00  8.000000e+00
      vertex  8.800000e+00 -9.000000e+00  1.000000e+01
    endloop
  endfacet
  facet normal  0.000000e+00 -1.000000e+00  -0.000000e+00
    outer loop
      vertex  8.800000e+00 -9.000000e+00  1.000000e+01
      vertex  0.000000e+00 -9.000000e+00  8.000000e+00
      vertex  8.800000e+00 -9.000000e+00  8.000000e+00
    endloop
  endfacet
  facet normal  1.000000e+00  0.000000e+00  0.000000e+00
    outer loop
      vertex  3.520000e+01  9.000000e+00  8.000000e+00
      vertex  3.520000e+01  1.100000e+01  8.000000e+00
      vertex  3.520000e+01  9.000000e+00  1.000000e+01
    endloop
  endfacet
  facet normal  1.000000e+00  -0.000000e+00  0.000000e+00
    outer loop
      vertex  3.520000e+01  9.000000e+00  1.000000e+01
      vertex  3.520000e+01  1.100000e+01  8.000000e+00
      vertex  3.520000e+01  1.100000e+01  1.000000e+01
    endloop
  endfacet
  facet normal  1.000000e+00  0.000000e+00  0.000000e+00
    outer loop
      vertex  3.520000e+01 -1.100000e+01  8.000000e+00
      vertex  3.520000e+01 -9.000000e+00  8.000000e+00
      vertex  3.520000e+01 -1.100000e+01  1.000000e+01
    endloop
  endfacet
  facet normal  1.000000e+00  -0.000000e+00  0.000000e+00
    outer loop
      vertex  3.520000e+01 -1.100000e+01  1.000000e+01
      vertex  3.520000e+01 -9.000000e+00  8.000000e+00
      vertex  3.520000e+01 -9.000000e+00  1.000000e+01
    endloop
  endfacet
  facet normal -1.000000e+00  0.000000e+00  0.000000e+00
    outer loop
      vertex  8.800000e+00  9.000000e+00  8.000000e+00
      vertex  8.800000e+00  9.000000e+00  1.000000e+01
      vertex  8.800000e+00  1.100000e+01  8.000000e+00
    endloop
  endfacet
  facet normal -1.000000e+00  0.000000e+00  0.000000e+00
    outer loop
      vertex  8.800000e+00  1.100000e+01  8.000000e+00
      vertex  8.800000e+00  9.000000e+00  1.000000e+01
      vertex  8.800000e+00  1.100000e+01  1.000000e+01
    endloop
  endfacet
  facet normal -1.000000e+00  0.000000e+00  0.000000e+00
    outer loop
      vertex  8.800000e+00 -1.100000e+01  8.000000e+00
      vertex  8.800000e+00 -1.100000e+01  1.000000e+01
      vertex  8.800000e+00 -9.000000e+00  8.000000e+00
    endloop
  endfacet
  facet normal -1.000000e+00  0.000000e+00  0.000000e+00
    outer loop
      vertex  8.800000e+00 -9.000000e+00  8.000000e+00
      vertex  8.800000e+00 -1.100000e+01  1.000000e+01
      vertex  8.800000e+00 -9.000000e+00  1.000000e+01
    endloop
  endfacet
  facet normal  0.000000e+00  1.000000e+00  0.000000e+00
    outer loop
      vertex  8.800000e+00  1.100000e+01  8.000000e+00
      vertex  8.800000e+00  1.100000e+01  1.000000e+01
      vertex  3.520000e+01  1.100000e+01  8.000000e+00
    endloop
  endfacet
  facet normal  0.000000e+00  1.000000e+00  -0.000000e+00
    outer loop
      vertex  3.520000e+01  1.100000e+01  8.000000e+00
      vertex  8.800000e+00  1.100000e+01  1.000000e+01
      vertex  3.520000e+01  1.100000e+01  1.000000e+01
    endloop
  endfacet
  facet normal  0.000000e+00 -1.000000e+00  0.000000e+00
    outer loop
      vertex  8.800000e+00 -1.100000e+01  8.000000e+00
      vertex  3.520000e+01 -1.100000e+01  8.000000e+00
      vertex  8.800000e+00 -1.100000e+01  1.000000e+01
    endloop
  endfacet
  facet normal  0.000000e+00 -1.000000e+00  0.000000e+00
    outer loop
      vertex  8.800000e+00 -1.100000e+01  1.000000e+01
      vertex  3.520000e+01 -1.100000e+01  8.000000e+00
      vertex  3.520000e+01 -1.100000e+01  1.000000e+01
    endloop
  endfacet
endsolid CATIA STL
